%TF.GenerationSoftware,KiCad,Pcbnew,9.0.3*%
%TF.CreationDate,2026-05-04T15:41:23+08:00*%
%TF.ProjectId,KiCad_Traffic_Light_Controller_demo,4b694361-645f-4547-9261-666669635f4c,rev?*%
%TF.SameCoordinates,Original*%
%TF.FileFunction,Legend,Bot*%
%TF.FilePolarity,Positive*%
%FSLAX46Y46*%
G04 Gerber Fmt 4.6, Leading zero omitted, Abs format (unit mm)*
G04 Created by KiCad (PCBNEW 9.0.3) date 2026-05-04 15:41:23*
%MOMM*%
%LPD*%
G01*
G04 APERTURE LIST*
%ADD10C,0.000000*%
%ADD11C,0.010000*%
G04 APERTURE END LIST*
D10*
%TO.C,G\u002A\u002A\u002A*%
G36*
X175607634Y-130625717D02*
G01*
X175607634Y-131086668D01*
X174908260Y-131086668D01*
X174208886Y-131086668D01*
X174208886Y-132382100D01*
X174208886Y-133677532D01*
X173747935Y-133677532D01*
X173286984Y-133677532D01*
X173286984Y-132382100D01*
X173286984Y-131086668D01*
X172595557Y-131086668D01*
X171904130Y-131086668D01*
X171904130Y-130625717D01*
X171904130Y-130164766D01*
X173755882Y-130164766D01*
X175607634Y-130164766D01*
X175607634Y-130625717D01*
G37*
G36*
X192615144Y-131921149D02*
G01*
X192615144Y-133677532D01*
X192154193Y-133677532D01*
X191693241Y-133677532D01*
X191693241Y-133081474D01*
X191693241Y-132485417D01*
X190517021Y-132485417D01*
X189340801Y-132485417D01*
X189340801Y-132024466D01*
X189340801Y-131563514D01*
X190517021Y-131563514D01*
X191693241Y-131563514D01*
X191693241Y-131325091D01*
X191693241Y-131086668D01*
X190254756Y-131086668D01*
X188816270Y-131086668D01*
X188816270Y-130625717D01*
X188816270Y-130164766D01*
X190715707Y-130164766D01*
X192615144Y-130164766D01*
X192615144Y-131921149D01*
G37*
G36*
X159315394Y-131535513D02*
G01*
X159315394Y-132906392D01*
X158930065Y-133291962D01*
X158544736Y-133677532D01*
X156895522Y-133677532D01*
X155246308Y-133677532D01*
X155246308Y-133216581D01*
X155246308Y-132755630D01*
X156705060Y-132755630D01*
X158163812Y-132755630D01*
X158278652Y-132640018D01*
X158281420Y-132637230D01*
X158332841Y-132584352D01*
X158365605Y-132546523D01*
X158383867Y-132517133D01*
X158391778Y-132489571D01*
X158393492Y-132457227D01*
X158393492Y-132390048D01*
X157209324Y-132390048D01*
X156025156Y-132390048D01*
X156025156Y-131929096D01*
X156025156Y-131468145D01*
X157209324Y-131468145D01*
X158393492Y-131468145D01*
X158393492Y-131277407D01*
X158393492Y-131086668D01*
X156994500Y-131086668D01*
X155595507Y-131086668D01*
X155599725Y-130629691D01*
X155603942Y-130172713D01*
X157459668Y-130168674D01*
X159315394Y-130164634D01*
X159315394Y-131535513D01*
G37*
G36*
X184540551Y-131928858D02*
G01*
X184540551Y-132906392D01*
X184155222Y-133291962D01*
X183769893Y-133677532D01*
X182331405Y-133677532D01*
X180892917Y-133677532D01*
X180507347Y-133292203D01*
X180121777Y-132906874D01*
X180121777Y-131929335D01*
X180121777Y-131333742D01*
X181043679Y-131333742D01*
X181043679Y-131929074D01*
X181043679Y-132524406D01*
X181158519Y-132640018D01*
X181273359Y-132755630D01*
X182331164Y-132755630D01*
X183388968Y-132755630D01*
X183503808Y-132640018D01*
X183618648Y-132524406D01*
X183618648Y-131920377D01*
X183618648Y-131316348D01*
X183503037Y-131201508D01*
X183387425Y-131086668D01*
X182338365Y-131086668D01*
X181289304Y-131086668D01*
X181166492Y-131210205D01*
X181043679Y-131333742D01*
X180121777Y-131333742D01*
X180121777Y-130951796D01*
X180515056Y-130558281D01*
X180908335Y-130164766D01*
X182330928Y-130164766D01*
X183753521Y-130164766D01*
X184147036Y-130558045D01*
X184540551Y-130951324D01*
X184540551Y-131316348D01*
X184540551Y-131928858D01*
G37*
G36*
X179450813Y-130535243D02*
G01*
X179820066Y-130905720D01*
X179819144Y-131278328D01*
X179818222Y-131650936D01*
X179449891Y-132020492D01*
X179081560Y-132390048D01*
X177933623Y-132390048D01*
X176785687Y-132390048D01*
X176711507Y-132475970D01*
X176708348Y-132479639D01*
X176672447Y-132522865D01*
X176646996Y-132556252D01*
X176637327Y-132572839D01*
X176637394Y-132573382D01*
X176648519Y-132591566D01*
X176675001Y-132625996D01*
X176711507Y-132669707D01*
X176785687Y-132755630D01*
X178223256Y-132755630D01*
X179660826Y-132755630D01*
X179660826Y-133216581D01*
X179660826Y-133677532D01*
X178034273Y-133677532D01*
X176407719Y-133677532D01*
X176047414Y-133313260D01*
X175687109Y-132948989D01*
X175687109Y-132572236D01*
X175687109Y-132195482D01*
X176047673Y-131831814D01*
X176408237Y-131468145D01*
X177554209Y-131468145D01*
X178700181Y-131468145D01*
X178794556Y-131372776D01*
X178888930Y-131277407D01*
X178794556Y-131182038D01*
X178700181Y-131086668D01*
X177376436Y-131086668D01*
X176052691Y-131086668D01*
X176052691Y-130625717D01*
X176052691Y-130164766D01*
X177567125Y-130164766D01*
X179081560Y-130164766D01*
X179450813Y-130535243D01*
G37*
G36*
X185105915Y-128474813D02*
G01*
X185108650Y-128512701D01*
X185110820Y-128572967D01*
X185112250Y-128650507D01*
X185112766Y-128740216D01*
X185112766Y-129016417D01*
X184822684Y-129181732D01*
X184532603Y-129347047D01*
X184528226Y-129606851D01*
X184523850Y-129866656D01*
X184375898Y-129723526D01*
X184331431Y-129681272D01*
X184243165Y-129602771D01*
X184169282Y-129545016D01*
X184111608Y-129509367D01*
X184071968Y-129497182D01*
X184070111Y-129497084D01*
X184060593Y-129491049D01*
X184054163Y-129472236D01*
X184050261Y-129435895D01*
X184048329Y-129377277D01*
X184047810Y-129291631D01*
X184047810Y-129086080D01*
X184091521Y-129055459D01*
X184122723Y-129035229D01*
X184174184Y-129004321D01*
X184230601Y-128972232D01*
X184233442Y-128970663D01*
X184291271Y-128938276D01*
X184365650Y-128895982D01*
X184452166Y-128846354D01*
X184546405Y-128791963D01*
X184643955Y-128735381D01*
X184740402Y-128679177D01*
X184831333Y-128625925D01*
X184912336Y-128578195D01*
X184978996Y-128538558D01*
X185026902Y-128509585D01*
X185051640Y-128493849D01*
X185053672Y-128492420D01*
X185085032Y-128472311D01*
X185103298Y-128464015D01*
X185105915Y-128474813D01*
G37*
G36*
X184332145Y-134304187D02*
G01*
X184368114Y-134326847D01*
X184423658Y-134357242D01*
X184468563Y-134376754D01*
X184502032Y-134390371D01*
X184520532Y-134411073D01*
X184524656Y-134447707D01*
X184525093Y-134461766D01*
X184528787Y-134477901D01*
X184539234Y-134493997D01*
X184559917Y-134512670D01*
X184594324Y-134536536D01*
X184645939Y-134568213D01*
X184718248Y-134610317D01*
X184814737Y-134665464D01*
X185104818Y-134830780D01*
X185109167Y-135104532D01*
X185109981Y-135178710D01*
X185109921Y-135258335D01*
X185108805Y-135321556D01*
X185106732Y-135363247D01*
X185103803Y-135378283D01*
X185102539Y-135378044D01*
X185080690Y-135367920D01*
X185038162Y-135345170D01*
X184980593Y-135312942D01*
X184913618Y-135274381D01*
X184842873Y-135232633D01*
X184832426Y-135226432D01*
X184803164Y-135209261D01*
X184758952Y-135183495D01*
X184697693Y-135147920D01*
X184617290Y-135101319D01*
X184515645Y-135042475D01*
X184390661Y-134970173D01*
X184240241Y-134883197D01*
X184204979Y-134863074D01*
X184151638Y-134833741D01*
X184112350Y-134813570D01*
X184093773Y-134806068D01*
X184087870Y-134805150D01*
X184069886Y-134785650D01*
X184057418Y-134739566D01*
X184050161Y-134665274D01*
X184047810Y-134561150D01*
X184047810Y-134377723D01*
X184099468Y-134351596D01*
X184102245Y-134350174D01*
X184152514Y-134320967D01*
X184201472Y-134287800D01*
X184251819Y-134250131D01*
X184332145Y-134304187D01*
G37*
G36*
X188768586Y-131921149D02*
G01*
X188768586Y-133677532D01*
X188307634Y-133677532D01*
X187846683Y-133677532D01*
X187846683Y-133137106D01*
X187846683Y-132596681D01*
X187370679Y-132596681D01*
X186894675Y-132596681D01*
X186428248Y-133133133D01*
X185961820Y-133669585D01*
X185354502Y-133673747D01*
X185329202Y-133673913D01*
X185195444Y-133674543D01*
X185072819Y-133674713D01*
X184964770Y-133674446D01*
X184874740Y-133673768D01*
X184806170Y-133672702D01*
X184762504Y-133671272D01*
X184747184Y-133669502D01*
X184754219Y-133660030D01*
X184780204Y-133628732D01*
X184823360Y-133577978D01*
X184881601Y-133510186D01*
X184952843Y-133427771D01*
X185035003Y-133333152D01*
X185125995Y-133228745D01*
X185223734Y-133116966D01*
X185700284Y-132572839D01*
X185350893Y-132223022D01*
X185001502Y-131873205D01*
X185001502Y-131388666D01*
X185001502Y-131286210D01*
X185923404Y-131286210D01*
X185923404Y-131389558D01*
X185923404Y-131492906D01*
X186023175Y-131591790D01*
X186122945Y-131690673D01*
X186984814Y-131690673D01*
X187846683Y-131690673D01*
X187846683Y-131388671D01*
X187846683Y-131086668D01*
X186983927Y-131086668D01*
X186121172Y-131086668D01*
X186022288Y-131186439D01*
X185923404Y-131286210D01*
X185001502Y-131286210D01*
X185001502Y-130904126D01*
X185370931Y-130534446D01*
X185740359Y-130164766D01*
X187254473Y-130164766D01*
X188768586Y-130164766D01*
X188768586Y-131388671D01*
X188768586Y-131921149D01*
G37*
G36*
X193907188Y-133562603D02*
G01*
X193910376Y-133603976D01*
X193913133Y-133671934D01*
X193915392Y-133763723D01*
X193917088Y-133876589D01*
X193918153Y-134007775D01*
X193918523Y-134154529D01*
X193918523Y-134758685D01*
X193858917Y-134799459D01*
X193844401Y-134808826D01*
X193801102Y-134835353D01*
X193736375Y-134874148D01*
X193653979Y-134922986D01*
X193557671Y-134979642D01*
X193451212Y-135041891D01*
X193338360Y-135107511D01*
X193260127Y-135152733D01*
X193155167Y-135212939D01*
X193060880Y-135266485D01*
X192980620Y-135311494D01*
X192917740Y-135346090D01*
X192875595Y-135368396D01*
X192857541Y-135376536D01*
X192855984Y-135376436D01*
X192848724Y-135366499D01*
X192843514Y-135338226D01*
X192840101Y-135288260D01*
X192838238Y-135213239D01*
X192837672Y-135109805D01*
X192837672Y-134841328D01*
X193111858Y-134685956D01*
X193122083Y-134680156D01*
X193207077Y-134631499D01*
X193283028Y-134587256D01*
X193345263Y-134550208D01*
X193389107Y-134523133D01*
X193409887Y-134508808D01*
X193413419Y-134504863D01*
X193420729Y-134488914D01*
X193426115Y-134461055D01*
X193429844Y-134417312D01*
X193432179Y-134353709D01*
X193433386Y-134266272D01*
X193433730Y-134151025D01*
X193433730Y-133815019D01*
X193661649Y-133682696D01*
X193716691Y-133650986D01*
X193787526Y-133610967D01*
X193845619Y-133579081D01*
X193886087Y-133557994D01*
X193904045Y-133550373D01*
X193907188Y-133562603D01*
G37*
G36*
X171633917Y-131921149D02*
G01*
X171633917Y-132572839D01*
X171633917Y-133677532D01*
X169953159Y-133677532D01*
X168272401Y-133677532D01*
X167902721Y-133308103D01*
X167533041Y-132938674D01*
X167533041Y-132572839D01*
X168470838Y-132572839D01*
X168471416Y-132575452D01*
X168487268Y-132597864D01*
X168520422Y-132632755D01*
X168564953Y-132673772D01*
X168659067Y-132755630D01*
X169685541Y-132755630D01*
X170712015Y-132755630D01*
X170712015Y-132572839D01*
X170712015Y-132390048D01*
X169685541Y-132390048D01*
X168659067Y-132390048D01*
X168564953Y-132471906D01*
X168554534Y-132481085D01*
X168511987Y-132521304D01*
X168482113Y-132554007D01*
X168470838Y-132572839D01*
X167533041Y-132572839D01*
X167533041Y-132572506D01*
X167533041Y-132206338D01*
X167637576Y-132103481D01*
X167644276Y-132096863D01*
X167708936Y-132031193D01*
X167778383Y-131958181D01*
X167838692Y-131892438D01*
X167935274Y-131784252D01*
X167869264Y-131716992D01*
X167803254Y-131649733D01*
X167803254Y-131277407D01*
X168734099Y-131277407D01*
X168828473Y-131372776D01*
X168922847Y-131468145D01*
X169817431Y-131468145D01*
X170712015Y-131468145D01*
X170712015Y-131277407D01*
X170712015Y-131086668D01*
X169817431Y-131086668D01*
X168922847Y-131086668D01*
X168828473Y-131182038D01*
X168734099Y-131277407D01*
X167803254Y-131277407D01*
X167803254Y-131276929D01*
X167803254Y-130904126D01*
X168172683Y-130534446D01*
X168542112Y-130164766D01*
X170088014Y-130164766D01*
X171633917Y-130164766D01*
X171633917Y-131277407D01*
X171633917Y-131921149D01*
G37*
G36*
X192849293Y-128465095D02*
G01*
X192873996Y-128478124D01*
X192918919Y-128503597D01*
X192978948Y-128538585D01*
X193048971Y-128580157D01*
X193150136Y-128640547D01*
X193240523Y-128694018D01*
X193316238Y-128738131D01*
X193383774Y-128776667D01*
X193449624Y-128813406D01*
X193498118Y-128840358D01*
X193596789Y-128896216D01*
X193688153Y-128949236D01*
X193768089Y-128996940D01*
X193832480Y-129036847D01*
X193877206Y-129066479D01*
X193898149Y-129083358D01*
X193900261Y-129087203D01*
X193905260Y-129109101D01*
X193909322Y-129149585D01*
X193912517Y-129210854D01*
X193914913Y-129295109D01*
X193916582Y-129404550D01*
X193917594Y-129541377D01*
X193918018Y-129707789D01*
X193918032Y-129737761D01*
X193917613Y-129911722D01*
X193916307Y-130054173D01*
X193914115Y-130165063D01*
X193911039Y-130244337D01*
X193907080Y-130291940D01*
X193902239Y-130307820D01*
X193901219Y-130307732D01*
X193878261Y-130298356D01*
X193837486Y-130276552D01*
X193787001Y-130246627D01*
X193771261Y-130236946D01*
X193704657Y-130196634D01*
X193628100Y-130151024D01*
X193555202Y-130108242D01*
X193422356Y-130031051D01*
X193428043Y-129691616D01*
X193433730Y-129352181D01*
X193211201Y-129224749D01*
X193170688Y-129201619D01*
X193089180Y-129155482D01*
X193014489Y-129113693D01*
X192953518Y-129080102D01*
X192913173Y-129058558D01*
X192837672Y-129019800D01*
X192837672Y-128741908D01*
X192838019Y-128664042D01*
X192839209Y-128584164D01*
X192841093Y-128520807D01*
X192843514Y-128479061D01*
X192846312Y-128464015D01*
X192849293Y-128465095D01*
G37*
G36*
X167200909Y-130164934D02*
G01*
X167321482Y-130165475D01*
X167428156Y-130166346D01*
X167517354Y-130167498D01*
X167585497Y-130168884D01*
X167629007Y-130170458D01*
X167644305Y-130172173D01*
X167642764Y-130174741D01*
X167626413Y-130198415D01*
X167593222Y-130245357D01*
X167544460Y-130313796D01*
X167481399Y-130401966D01*
X167405307Y-130508095D01*
X167317455Y-130630417D01*
X167219113Y-130767161D01*
X167111551Y-130916559D01*
X166996039Y-131076842D01*
X166873847Y-131246241D01*
X166746245Y-131422987D01*
X165848185Y-132666396D01*
X165848185Y-133171964D01*
X165848185Y-133677532D01*
X165387234Y-133677532D01*
X164926283Y-133677532D01*
X164926116Y-133164923D01*
X164925950Y-132652313D01*
X164087662Y-131495169D01*
X163249374Y-130338025D01*
X163245113Y-130712347D01*
X163240851Y-131086668D01*
X162541765Y-131086668D01*
X161842678Y-131086668D01*
X161842678Y-132382100D01*
X161842678Y-133677532D01*
X161381727Y-133677532D01*
X160920776Y-133677532D01*
X160920776Y-132382100D01*
X160920776Y-131086668D01*
X160221158Y-131086668D01*
X159521540Y-131086668D01*
X159525757Y-130629691D01*
X159529975Y-130172713D01*
X161897900Y-130172713D01*
X164265825Y-130172713D01*
X164814608Y-130931308D01*
X164904027Y-131054823D01*
X164999073Y-131185907D01*
X165087308Y-131307382D01*
X165167045Y-131416939D01*
X165236599Y-131512269D01*
X165294285Y-131591061D01*
X165338419Y-131651008D01*
X165367314Y-131689799D01*
X165379286Y-131705124D01*
X165390657Y-131697458D01*
X165420132Y-131664326D01*
X165467210Y-131605721D01*
X165531632Y-131521985D01*
X165613139Y-131413458D01*
X165711471Y-131280483D01*
X165826369Y-131123402D01*
X165957575Y-130942556D01*
X166519968Y-130164766D01*
X167082137Y-130164766D01*
X167200909Y-130164934D01*
G37*
G36*
X183431579Y-134778222D02*
G01*
X183435857Y-135131852D01*
X183618648Y-135236311D01*
X183747135Y-135309736D01*
X183987622Y-135447182D01*
X184202602Y-135570104D01*
X184393473Y-135679339D01*
X184561635Y-135775728D01*
X184708489Y-135860109D01*
X184835433Y-135933319D01*
X184943867Y-135996199D01*
X185035192Y-136049586D01*
X185110806Y-136094320D01*
X185172111Y-136131239D01*
X185220504Y-136161181D01*
X185257386Y-136184985D01*
X185284158Y-136203491D01*
X185302217Y-136217536D01*
X185312965Y-136227960D01*
X185317801Y-136235600D01*
X185318125Y-136241296D01*
X185315336Y-136245886D01*
X185310834Y-136250210D01*
X185295921Y-136257338D01*
X185254214Y-136273571D01*
X185190197Y-136297002D01*
X185108054Y-136326129D01*
X185011970Y-136359450D01*
X184906133Y-136395463D01*
X184813678Y-136426785D01*
X184715024Y-136460566D01*
X184629313Y-136490299D01*
X184560849Y-136514477D01*
X184513933Y-136531596D01*
X184492866Y-136540148D01*
X184480056Y-136546679D01*
X184458759Y-136554020D01*
X184458195Y-136553931D01*
X184439025Y-136544736D01*
X184397317Y-136522154D01*
X184337434Y-136488625D01*
X184263740Y-136446589D01*
X184180599Y-136398485D01*
X184114515Y-136360057D01*
X183999946Y-136293644D01*
X183874994Y-136221425D01*
X183743104Y-136145373D01*
X183607722Y-136067463D01*
X183472293Y-135989672D01*
X183340263Y-135913973D01*
X183215078Y-135842341D01*
X183100183Y-135776751D01*
X182999024Y-135719178D01*
X182915046Y-135671596D01*
X182851696Y-135635982D01*
X182812418Y-135614309D01*
X182810863Y-135613470D01*
X182760412Y-135583657D01*
X182722061Y-135556303D01*
X182704006Y-135537232D01*
X182702460Y-135523694D01*
X182701141Y-135480848D01*
X182700595Y-135413027D01*
X182700810Y-135324081D01*
X182701772Y-135217859D01*
X182703470Y-135098213D01*
X182705890Y-134968990D01*
X182717278Y-134424591D01*
X183072290Y-134424591D01*
X183427302Y-134424591D01*
X183431579Y-134778222D01*
G37*
G36*
X184641382Y-127365884D02*
G01*
X184659690Y-127372210D01*
X184753348Y-127404408D01*
X184862254Y-127441644D01*
X184974331Y-127479794D01*
X185077500Y-127514738D01*
X185160492Y-127543368D01*
X185234363Y-127570833D01*
X185282944Y-127592005D01*
X185309125Y-127608169D01*
X185315796Y-127620608D01*
X185314720Y-127623157D01*
X185307608Y-127630978D01*
X185292678Y-127642820D01*
X185268403Y-127659582D01*
X185233259Y-127682162D01*
X185185721Y-127711457D01*
X185124263Y-127748365D01*
X185047360Y-127793784D01*
X184953487Y-127848612D01*
X184841118Y-127913746D01*
X184708730Y-127990084D01*
X184554795Y-128078524D01*
X184377790Y-128179964D01*
X184176189Y-128295301D01*
X183948467Y-128425433D01*
X183427910Y-128722782D01*
X183427910Y-129109982D01*
X183427910Y-129497182D01*
X183072701Y-129497182D01*
X182717492Y-129497182D01*
X182706172Y-128920787D01*
X182703886Y-128792212D01*
X182702168Y-128668347D01*
X182701125Y-128557619D01*
X182700769Y-128463755D01*
X182701114Y-128390486D01*
X182702175Y-128341539D01*
X182703964Y-128320645D01*
X182705249Y-128317989D01*
X182714915Y-128306923D01*
X182735036Y-128291218D01*
X182768508Y-128269089D01*
X182818231Y-128238754D01*
X182887103Y-128198429D01*
X182978021Y-128146330D01*
X183093884Y-128080674D01*
X183115251Y-128068455D01*
X183177702Y-128031625D01*
X183233830Y-127997226D01*
X183256982Y-127982842D01*
X183290391Y-127963116D01*
X183306102Y-127955379D01*
X183314583Y-127951516D01*
X183345803Y-127934677D01*
X183394107Y-127907547D01*
X183453445Y-127873488D01*
X183516413Y-127837063D01*
X183600507Y-127788517D01*
X183692461Y-127735514D01*
X183786377Y-127681447D01*
X183876357Y-127629708D01*
X183956503Y-127583692D01*
X184020918Y-127546790D01*
X184063705Y-127522397D01*
X184093762Y-127505185D01*
X184147226Y-127474303D01*
X184213217Y-127436015D01*
X184283747Y-127394945D01*
X184448158Y-127299027D01*
X184641382Y-127365884D01*
G37*
G36*
X188462992Y-136770042D02*
G01*
X188475398Y-136777225D01*
X188524549Y-136805976D01*
X188591171Y-136845209D01*
X188668103Y-136890699D01*
X188748183Y-136938224D01*
X188787764Y-136961579D01*
X188857456Y-137001766D01*
X188915410Y-137033975D01*
X188956474Y-137055376D01*
X188975498Y-137063139D01*
X188991911Y-137056555D01*
X189031701Y-137036189D01*
X189089818Y-137004550D01*
X189161572Y-136964196D01*
X189242271Y-136917687D01*
X189314211Y-136875759D01*
X189391268Y-136830863D01*
X189456693Y-136792759D01*
X189505209Y-136764522D01*
X189531539Y-136749223D01*
X189537762Y-136745769D01*
X189554320Y-136739637D01*
X189573729Y-136740069D01*
X189600890Y-136748991D01*
X189640706Y-136768327D01*
X189698079Y-136800000D01*
X189777910Y-136845935D01*
X189810570Y-136864910D01*
X189882746Y-136907212D01*
X189944480Y-136943891D01*
X189990065Y-136971541D01*
X190013795Y-136986755D01*
X190016912Y-136990426D01*
X190015548Y-136999441D01*
X190004221Y-137012876D01*
X189981151Y-137031834D01*
X189944553Y-137057416D01*
X189892645Y-137090724D01*
X189823644Y-137132859D01*
X189735768Y-137184924D01*
X189627233Y-137248021D01*
X189496257Y-137323250D01*
X189341058Y-137411715D01*
X189159852Y-137514516D01*
X189125015Y-137534556D01*
X189078297Y-137562374D01*
X189047183Y-137582069D01*
X189027831Y-137593244D01*
X188998023Y-137600769D01*
X188961901Y-137596511D01*
X188914453Y-137578973D01*
X188850667Y-137546662D01*
X188765529Y-137498083D01*
X188764087Y-137497237D01*
X188689000Y-137453355D01*
X188616917Y-137411542D01*
X188555965Y-137376493D01*
X188514268Y-137352902D01*
X188488625Y-137338469D01*
X188449219Y-137315423D01*
X188426846Y-137301129D01*
X188420443Y-137296714D01*
X188389816Y-137277947D01*
X188348067Y-137254002D01*
X188303407Y-137229011D01*
X188202521Y-137171818D01*
X188112237Y-137119620D01*
X188036006Y-137074479D01*
X187977281Y-137038457D01*
X187939514Y-137013615D01*
X187926158Y-137002016D01*
X187933494Y-136995121D01*
X187964235Y-136974292D01*
X188014765Y-136942786D01*
X188080540Y-136903419D01*
X188157016Y-136859004D01*
X188387875Y-136726775D01*
X188462992Y-136770042D01*
G37*
G36*
X188984459Y-126251527D02*
G01*
X189011084Y-126261359D01*
X189052276Y-126280702D01*
X189109837Y-126310547D01*
X189185575Y-126351887D01*
X189281293Y-126405712D01*
X189398797Y-126473014D01*
X189539892Y-126554786D01*
X189706383Y-126652018D01*
X189768251Y-126687884D01*
X189847293Y-126733066D01*
X189919323Y-126773658D01*
X189932852Y-126781318D01*
X189981623Y-126811108D01*
X190015634Y-126835381D01*
X190028204Y-126849483D01*
X190024018Y-126854684D01*
X189997539Y-126874619D01*
X189950754Y-126905445D01*
X189888412Y-126944086D01*
X189815264Y-126987462D01*
X189776054Y-127009968D01*
X189703787Y-127049969D01*
X189642165Y-127082181D01*
X189596731Y-127103756D01*
X189573029Y-127111849D01*
X189565941Y-127110939D01*
X189531460Y-127098292D01*
X189481404Y-127073826D01*
X189423989Y-127041424D01*
X189400180Y-127027161D01*
X189350667Y-126997841D01*
X189315500Y-126977506D01*
X189301104Y-126969897D01*
X189288781Y-126963252D01*
X189254422Y-126943081D01*
X189203612Y-126912629D01*
X189141888Y-126875189D01*
X189078612Y-126837295D01*
X189028616Y-126809850D01*
X188994693Y-126795672D01*
X188971343Y-126792517D01*
X188953070Y-126798142D01*
X188935736Y-126807513D01*
X188887074Y-126834761D01*
X188823253Y-126871219D01*
X188750383Y-126913318D01*
X188674574Y-126957493D01*
X188601934Y-127000176D01*
X188538573Y-127037801D01*
X188490602Y-127066799D01*
X188464129Y-127083605D01*
X188426058Y-127104016D01*
X188392602Y-127112352D01*
X188386929Y-127111235D01*
X188355587Y-127098382D01*
X188305848Y-127073787D01*
X188243534Y-127040756D01*
X188174467Y-127002597D01*
X188104469Y-126962615D01*
X188039364Y-126924117D01*
X187984974Y-126890409D01*
X187947121Y-126864797D01*
X187931628Y-126850588D01*
X187931499Y-126849787D01*
X187944054Y-126833994D01*
X187977692Y-126809306D01*
X188025706Y-126780705D01*
X188056106Y-126763898D01*
X188118485Y-126728842D01*
X188196474Y-126684581D01*
X188283055Y-126635100D01*
X188371214Y-126584388D01*
X188430142Y-126550370D01*
X188520178Y-126498397D01*
X188604915Y-126449486D01*
X188676942Y-126407916D01*
X188728848Y-126377963D01*
X188736946Y-126373277D01*
X188796664Y-126337983D01*
X188850182Y-126305222D01*
X188886763Y-126281549D01*
X188888735Y-126280211D01*
X188932888Y-126258490D01*
X188974185Y-126249767D01*
X188984459Y-126251527D01*
G37*
G36*
X194543022Y-132940550D02*
G01*
X194572263Y-132957150D01*
X194619803Y-132991807D01*
X194682440Y-133042121D01*
X194756974Y-133105688D01*
X194786846Y-133131790D01*
X194872093Y-133206280D01*
X194959643Y-133282783D01*
X195040750Y-133353655D01*
X195106664Y-133411253D01*
X195253692Y-133539730D01*
X195253692Y-134545168D01*
X195253692Y-135550605D01*
X195011295Y-135688962D01*
X194951066Y-135723329D01*
X194868363Y-135770481D01*
X194794298Y-135812668D01*
X194735194Y-135846288D01*
X194697372Y-135867741D01*
X194675975Y-135879879D01*
X194620029Y-135911805D01*
X194552224Y-135950660D01*
X194482791Y-135990586D01*
X194427987Y-136022164D01*
X194242515Y-136129072D01*
X194077492Y-136224251D01*
X193934105Y-136307016D01*
X193813540Y-136376683D01*
X193716981Y-136432566D01*
X193645614Y-136473982D01*
X193600626Y-136500244D01*
X193557028Y-136523313D01*
X193514729Y-136540240D01*
X193489362Y-136543708D01*
X193465853Y-136535715D01*
X193419005Y-136519645D01*
X193355693Y-136497860D01*
X193282728Y-136472701D01*
X193199088Y-136444060D01*
X193093737Y-136408371D01*
X192984621Y-136371720D01*
X192885357Y-136338699D01*
X192791047Y-136307286D01*
X192720502Y-136282771D01*
X192673272Y-136264336D01*
X192645828Y-136250145D01*
X192634643Y-136238364D01*
X192636187Y-136227157D01*
X192646934Y-136214689D01*
X192656038Y-136208203D01*
X192690804Y-136186472D01*
X192748040Y-136152033D01*
X192824626Y-136106697D01*
X192917443Y-136052275D01*
X193023371Y-135990576D01*
X193139290Y-135923412D01*
X193262082Y-135852593D01*
X193388626Y-135779929D01*
X193515802Y-135707231D01*
X193640491Y-135636309D01*
X193759574Y-135568973D01*
X193793292Y-135549854D01*
X193857694Y-135513061D01*
X193937408Y-135467316D01*
X194025436Y-135416637D01*
X194114776Y-135365044D01*
X194192122Y-135320473D01*
X194262986Y-135279983D01*
X194319684Y-135247960D01*
X194357777Y-135226908D01*
X194372829Y-135219334D01*
X194384160Y-135214058D01*
X194415958Y-135196008D01*
X194459887Y-135169562D01*
X194540777Y-135119790D01*
X194529265Y-134035492D01*
X194529150Y-134024563D01*
X194526915Y-133799437D01*
X194525304Y-133604445D01*
X194524326Y-133438008D01*
X194523992Y-133298547D01*
X194524310Y-133184485D01*
X194525290Y-133094243D01*
X194526943Y-133026241D01*
X194529278Y-132978902D01*
X194532305Y-132950647D01*
X194536033Y-132939898D01*
X194543022Y-132940550D01*
G37*
G36*
X193799312Y-127466540D02*
G01*
X193837587Y-127488673D01*
X193934355Y-127544550D01*
X194049791Y-127611127D01*
X194177893Y-127684944D01*
X194312656Y-127762543D01*
X194448080Y-127840465D01*
X194578160Y-127915254D01*
X194674007Y-127970337D01*
X194788259Y-128036005D01*
X194894243Y-128096928D01*
X194988101Y-128150889D01*
X195065973Y-128195668D01*
X195124000Y-128229046D01*
X195158323Y-128248806D01*
X195245745Y-128299193D01*
X195249358Y-129307480D01*
X195252971Y-130315767D01*
X195067493Y-130474716D01*
X195045837Y-130493304D01*
X194971782Y-130557266D01*
X194900248Y-130619587D01*
X194838466Y-130673947D01*
X194793667Y-130714028D01*
X194743466Y-130759052D01*
X194684219Y-130811011D01*
X194634593Y-130853375D01*
X194602811Y-130877999D01*
X194567505Y-130900341D01*
X194547171Y-130906724D01*
X194544309Y-130897866D01*
X194541150Y-130862874D01*
X194538594Y-130800724D01*
X194536633Y-130710755D01*
X194535260Y-130592305D01*
X194534469Y-130444714D01*
X194534252Y-130267321D01*
X194534601Y-130059465D01*
X194535511Y-129820485D01*
X194535807Y-129755154D01*
X194536625Y-129545667D01*
X194537073Y-129365373D01*
X194537121Y-129212250D01*
X194536740Y-129084278D01*
X194535902Y-128979438D01*
X194534576Y-128895708D01*
X194532734Y-128831068D01*
X194530346Y-128783498D01*
X194527383Y-128750978D01*
X194523816Y-128731488D01*
X194519616Y-128723007D01*
X194518385Y-128722118D01*
X194495955Y-128708289D01*
X194449160Y-128680589D01*
X194380758Y-128640606D01*
X194293512Y-128589928D01*
X194190180Y-128530143D01*
X194073523Y-128462838D01*
X193946302Y-128389600D01*
X193811275Y-128312018D01*
X193671204Y-128231679D01*
X193528849Y-128150171D01*
X193386969Y-128069081D01*
X193248325Y-127989997D01*
X193115677Y-127914507D01*
X192991785Y-127844197D01*
X192932468Y-127810503D01*
X192831897Y-127752693D01*
X192755351Y-127707372D01*
X192700206Y-127672756D01*
X192663839Y-127647058D01*
X192643625Y-127628494D01*
X192636941Y-127615278D01*
X192641163Y-127605625D01*
X192647230Y-127601833D01*
X192679122Y-127587706D01*
X192731144Y-127567385D01*
X192796413Y-127543328D01*
X192868043Y-127517992D01*
X192939150Y-127493836D01*
X193002848Y-127473316D01*
X193052253Y-127458889D01*
X193065529Y-127455246D01*
X193107136Y-127442022D01*
X193131727Y-127431426D01*
X193152289Y-127422573D01*
X193196612Y-127406316D01*
X193258162Y-127384978D01*
X193330413Y-127360876D01*
X193513204Y-127300990D01*
X193799312Y-127466540D01*
G37*
G36*
X189010249Y-127702417D02*
G01*
X189016242Y-127705645D01*
X189050553Y-127724839D01*
X189104251Y-127755401D01*
X189171242Y-127793850D01*
X189245432Y-127836706D01*
X189284025Y-127859063D01*
X189375749Y-127912163D01*
X189482155Y-127973722D01*
X189600229Y-128042000D01*
X189726956Y-128115257D01*
X189859321Y-128191750D01*
X189994311Y-128269740D01*
X190128910Y-128347485D01*
X190260104Y-128423245D01*
X190384878Y-128495279D01*
X190500219Y-128561845D01*
X190603111Y-128621204D01*
X190690541Y-128671613D01*
X190759493Y-128711333D01*
X190806954Y-128738623D01*
X190829908Y-128751741D01*
X190842536Y-128758949D01*
X190893114Y-128788930D01*
X190944830Y-128820796D01*
X190966121Y-128834040D01*
X190999250Y-128853666D01*
X191014793Y-128861387D01*
X191014831Y-128861390D01*
X191030053Y-128869348D01*
X191069062Y-128891180D01*
X191128244Y-128924823D01*
X191203981Y-128968212D01*
X191292656Y-129019281D01*
X191390654Y-129075968D01*
X191392515Y-129077047D01*
X191490478Y-129133670D01*
X191579159Y-129184634D01*
X191654921Y-129227871D01*
X191714124Y-129261313D01*
X191753131Y-129282895D01*
X191768304Y-129290548D01*
X191768737Y-129290586D01*
X191786804Y-129299729D01*
X191817947Y-129320087D01*
X191848555Y-129339842D01*
X191899385Y-129370173D01*
X191955507Y-129401873D01*
X192005033Y-129429541D01*
X192052286Y-129457001D01*
X192082229Y-129475651D01*
X192085354Y-129479315D01*
X192080652Y-129483465D01*
X192063967Y-129486940D01*
X192033097Y-129489797D01*
X191985841Y-129492092D01*
X191920000Y-129493880D01*
X191833372Y-129495218D01*
X191723757Y-129496161D01*
X191588954Y-129496765D01*
X191426764Y-129497087D01*
X191234984Y-129497182D01*
X190356387Y-129497182D01*
X190202255Y-129407548D01*
X190166209Y-129386633D01*
X190093390Y-129344519D01*
X190002943Y-129292320D01*
X189900818Y-129233467D01*
X189792964Y-129171390D01*
X189685330Y-129109519D01*
X189649036Y-129088671D01*
X189538076Y-129024929D01*
X189449330Y-128973934D01*
X189378632Y-128933284D01*
X189321817Y-128900578D01*
X189274720Y-128873414D01*
X189233176Y-128849391D01*
X189193020Y-128826107D01*
X189150086Y-128801160D01*
X189100210Y-128772149D01*
X188978831Y-128701535D01*
X188480310Y-128989667D01*
X188394956Y-129038973D01*
X188269646Y-129111272D01*
X188147548Y-129181623D01*
X188033522Y-129247229D01*
X187932428Y-129305296D01*
X187849125Y-129353026D01*
X187788475Y-129387625D01*
X187595161Y-129497452D01*
X186721772Y-129493343D01*
X185848383Y-129489234D01*
X186518783Y-129103560D01*
X186575082Y-129071165D01*
X186738768Y-128976914D01*
X186912513Y-128876789D01*
X187090045Y-128774408D01*
X187265096Y-128673390D01*
X187431393Y-128577352D01*
X187582667Y-128489913D01*
X187712646Y-128414691D01*
X187719882Y-128410500D01*
X187840175Y-128340867D01*
X187954278Y-128274889D01*
X188058639Y-128214613D01*
X188149708Y-128162089D01*
X188223931Y-128119365D01*
X188277757Y-128088490D01*
X188307634Y-128071513D01*
X188333354Y-128056936D01*
X188372711Y-128033772D01*
X188395056Y-128019423D01*
X188404975Y-128012771D01*
X188438292Y-127992661D01*
X188482478Y-127967414D01*
X188516137Y-127948512D01*
X188575469Y-127914732D01*
X188649649Y-127872009D01*
X188742850Y-127817932D01*
X188859248Y-127750096D01*
X188879056Y-127738614D01*
X188930556Y-127710528D01*
X188964747Y-127696662D01*
X188988891Y-127694722D01*
X189010249Y-127702417D01*
G37*
G36*
X190882174Y-137244960D02*
G01*
X190887144Y-137276587D01*
X190881468Y-137335110D01*
X190865095Y-137422040D01*
X190863165Y-137431100D01*
X190844876Y-137519448D01*
X190825804Y-137615119D01*
X190809780Y-137698934D01*
X190807348Y-137712070D01*
X190793348Y-137787232D01*
X190779855Y-137859031D01*
X190769490Y-137913514D01*
X190765722Y-137933305D01*
X190752703Y-138003956D01*
X190741144Y-138069446D01*
X190736252Y-138094526D01*
X190724789Y-138136998D01*
X190713956Y-138160046D01*
X190711869Y-138161735D01*
X190687858Y-138177321D01*
X190641707Y-138205423D01*
X190577744Y-138243462D01*
X190500300Y-138288856D01*
X190413705Y-138339024D01*
X190317847Y-138394301D01*
X190217300Y-138452375D01*
X190121937Y-138507539D01*
X190039217Y-138555480D01*
X189976596Y-138591884D01*
X189972010Y-138594557D01*
X189915686Y-138627383D01*
X189837654Y-138672852D01*
X189743112Y-138727935D01*
X189637258Y-138789604D01*
X189525291Y-138854830D01*
X189412408Y-138920586D01*
X189375524Y-138942022D01*
X189273553Y-139000773D01*
X189181146Y-139053275D01*
X189101869Y-139097553D01*
X189039286Y-139131629D01*
X188996964Y-139153524D01*
X188978466Y-139161262D01*
X188967436Y-139157608D01*
X188931677Y-139140274D01*
X188877157Y-139111134D01*
X188808921Y-139072910D01*
X188732016Y-139028323D01*
X188694514Y-139006292D01*
X188618495Y-138961828D01*
X188525204Y-138907428D01*
X188418369Y-138845254D01*
X188301719Y-138777466D01*
X188178983Y-138706225D01*
X188053890Y-138633692D01*
X187930169Y-138562026D01*
X187811549Y-138493389D01*
X187701758Y-138429942D01*
X187604526Y-138373844D01*
X187523581Y-138327258D01*
X187462653Y-138292343D01*
X187425469Y-138271259D01*
X187366082Y-138238060D01*
X187306813Y-138203989D01*
X187267369Y-138178350D01*
X187243287Y-138156923D01*
X187230103Y-138135492D01*
X187223355Y-138109839D01*
X187218579Y-138075745D01*
X187215047Y-138052501D01*
X187204685Y-137993389D01*
X187189934Y-137915100D01*
X187172207Y-137825068D01*
X187152920Y-137730724D01*
X187140044Y-137668684D01*
X187114932Y-137545300D01*
X187096158Y-137448400D01*
X187083246Y-137374824D01*
X187075722Y-137321410D01*
X187073109Y-137284997D01*
X187074933Y-137262425D01*
X187080717Y-137250532D01*
X187086930Y-137249807D01*
X187119348Y-137261344D01*
X187178408Y-137290197D01*
X187264102Y-137336361D01*
X187376421Y-137399832D01*
X187515356Y-137480605D01*
X187631258Y-137548586D01*
X187758827Y-137623227D01*
X187886189Y-137697583D01*
X188006547Y-137767688D01*
X188113107Y-137829582D01*
X188199072Y-137879302D01*
X188251465Y-137909531D01*
X188368646Y-137977284D01*
X188494302Y-138050090D01*
X188616421Y-138120987D01*
X188722989Y-138183009D01*
X188790151Y-138222001D01*
X188864708Y-138264403D01*
X188918971Y-138293496D01*
X188957002Y-138311093D01*
X188982866Y-138319008D01*
X189000625Y-138319053D01*
X189014342Y-138313043D01*
X189034850Y-138300637D01*
X189081054Y-138273369D01*
X189150405Y-138232741D01*
X189240673Y-138180051D01*
X189349624Y-138116598D01*
X189475025Y-138043680D01*
X189614645Y-137962594D01*
X189766249Y-137874640D01*
X189927607Y-137781114D01*
X190096485Y-137683317D01*
X190270651Y-137582544D01*
X190299851Y-137565641D01*
X190391488Y-137512411D01*
X190476067Y-137463015D01*
X190548466Y-137420459D01*
X190603562Y-137387753D01*
X190636233Y-137367904D01*
X190657873Y-137354542D01*
X190709961Y-137323689D01*
X190764903Y-137292441D01*
X190815159Y-137264964D01*
X190853186Y-137245422D01*
X190871442Y-137237983D01*
X190882174Y-137244960D01*
G37*
G36*
X189090224Y-124745409D02*
G01*
X189093088Y-124747081D01*
X189163733Y-124788254D01*
X189238283Y-124831625D01*
X189301064Y-124868073D01*
X189351229Y-124897179D01*
X189405170Y-124928538D01*
X189444118Y-124951249D01*
X189477545Y-124970742D01*
X189530396Y-125001460D01*
X189587171Y-125034383D01*
X189608916Y-125046987D01*
X189674457Y-125085047D01*
X189749890Y-125128921D01*
X189822874Y-125171433D01*
X189865048Y-125195803D01*
X189917582Y-125225451D01*
X189955099Y-125245735D01*
X189971422Y-125253252D01*
X189971875Y-125253287D01*
X189990442Y-125262427D01*
X190021827Y-125282830D01*
X190033065Y-125290150D01*
X190072183Y-125314010D01*
X190131916Y-125349470D01*
X190207769Y-125393889D01*
X190295249Y-125444627D01*
X190389862Y-125499044D01*
X190449038Y-125532977D01*
X190535412Y-125582654D01*
X190609778Y-125625605D01*
X190668237Y-125659570D01*
X190706889Y-125682289D01*
X190721837Y-125691500D01*
X190725143Y-125701432D01*
X190733156Y-125737275D01*
X190743961Y-125792649D01*
X190756176Y-125860737D01*
X190785218Y-126025296D01*
X190812390Y-126170642D01*
X190838694Y-126301526D01*
X190865800Y-126426569D01*
X190873821Y-126464066D01*
X190884831Y-126524099D01*
X190890561Y-126568440D01*
X190889889Y-126589492D01*
X190882297Y-126598068D01*
X190864471Y-126602967D01*
X190835863Y-126596275D01*
X190792596Y-126576421D01*
X190730793Y-126541833D01*
X190646578Y-126490944D01*
X190645946Y-126490557D01*
X190623075Y-126476995D01*
X190576287Y-126449541D01*
X190508916Y-126410135D01*
X190424293Y-126360721D01*
X190325751Y-126303237D01*
X190216622Y-126239626D01*
X190100237Y-126171829D01*
X189979930Y-126101786D01*
X189859031Y-126031440D01*
X189740874Y-125962730D01*
X189628790Y-125897598D01*
X189526111Y-125837985D01*
X189436170Y-125785832D01*
X189381328Y-125754048D01*
X189260223Y-125683776D01*
X189160506Y-125625783D01*
X189083718Y-125580967D01*
X189031396Y-125550224D01*
X189005081Y-125534453D01*
X189004596Y-125534165D01*
X188989459Y-125532438D01*
X188962803Y-125540018D01*
X188921541Y-125558413D01*
X188862585Y-125589130D01*
X188782846Y-125633679D01*
X188679237Y-125693566D01*
X188606076Y-125736242D01*
X188491898Y-125802747D01*
X188363853Y-125877245D01*
X188229675Y-125955240D01*
X188097094Y-126032236D01*
X187973842Y-126103736D01*
X187867910Y-126165224D01*
X187746600Y-126235796D01*
X187627100Y-126305462D01*
X187515836Y-126370472D01*
X187419238Y-126427073D01*
X187343733Y-126471515D01*
X187291948Y-126501684D01*
X187219391Y-126542456D01*
X187158327Y-126574987D01*
X187113982Y-126596525D01*
X187091584Y-126604315D01*
X187089176Y-126604212D01*
X187077541Y-126598090D01*
X187071867Y-126579824D01*
X187072448Y-126545660D01*
X187079579Y-126491847D01*
X187093555Y-126414632D01*
X187114670Y-126310260D01*
X187133696Y-126217938D01*
X187156010Y-126107911D01*
X187177547Y-126000057D01*
X187196877Y-125901610D01*
X187212566Y-125819808D01*
X187223183Y-125761887D01*
X187225921Y-125746851D01*
X187233627Y-125718096D01*
X187247321Y-125695092D01*
X187272395Y-125672438D01*
X187314242Y-125644734D01*
X187378253Y-125606581D01*
X187421086Y-125581557D01*
X187477958Y-125548809D01*
X187521490Y-125524320D01*
X187544681Y-125512066D01*
X187551494Y-125508604D01*
X187583783Y-125490699D01*
X187635466Y-125461176D01*
X187701079Y-125423171D01*
X187775156Y-125379820D01*
X187778873Y-125377635D01*
X187849463Y-125336302D01*
X187941306Y-125282758D01*
X188048491Y-125220435D01*
X188165109Y-125152766D01*
X188285249Y-125083183D01*
X188403004Y-125015121D01*
X188435576Y-124996305D01*
X188543478Y-124933828D01*
X188644718Y-124874998D01*
X188735117Y-124822256D01*
X188810496Y-124778044D01*
X188866679Y-124744804D01*
X188899486Y-124724977D01*
X188974754Y-124678021D01*
X189090224Y-124745409D01*
G37*
G36*
X187016877Y-134017904D02*
G01*
X187070530Y-134049400D01*
X187158478Y-134103008D01*
X187240507Y-134155245D01*
X187309326Y-134201425D01*
X187357643Y-134236862D01*
X187374993Y-134250648D01*
X187442084Y-134300998D01*
X187499919Y-134337256D01*
X187559761Y-134365815D01*
X187632878Y-134393068D01*
X187655679Y-134403160D01*
X187705193Y-134428252D01*
X187775846Y-134465757D01*
X187864197Y-134513743D01*
X187966804Y-134570275D01*
X188080227Y-134633420D01*
X188201024Y-134701246D01*
X188325756Y-134771819D01*
X188450981Y-134843206D01*
X188573257Y-134913474D01*
X188689145Y-134980689D01*
X188795204Y-135042919D01*
X188887992Y-135098229D01*
X188978705Y-135152874D01*
X189060410Y-135104104D01*
X189099490Y-135080918D01*
X189189526Y-135028168D01*
X189289714Y-134970148D01*
X189388485Y-134913577D01*
X189398949Y-134907622D01*
X189453339Y-134876668D01*
X189507697Y-134845730D01*
X189532575Y-134831472D01*
X189584507Y-134801532D01*
X189653312Y-134761751D01*
X189733016Y-134715582D01*
X189817647Y-134666480D01*
X189884586Y-134627640D01*
X189964438Y-134581383D01*
X190034069Y-134541131D01*
X190087723Y-134510208D01*
X190119649Y-134491939D01*
X190136137Y-134482585D01*
X190203860Y-134443896D01*
X190290950Y-134393864D01*
X190391268Y-134336037D01*
X190498675Y-134273960D01*
X190607030Y-134211181D01*
X190710195Y-134151247D01*
X190802030Y-134097704D01*
X190813912Y-134090781D01*
X190900564Y-134041938D01*
X190965073Y-134008823D01*
X191006029Y-133992111D01*
X191022023Y-133992476D01*
X191022918Y-133995056D01*
X191048541Y-134044935D01*
X191091085Y-134106321D01*
X191143647Y-134170719D01*
X191199325Y-134229632D01*
X191251216Y-134274567D01*
X191311760Y-134316595D01*
X191381861Y-134356272D01*
X191453887Y-134384571D01*
X191535276Y-134403684D01*
X191633469Y-134415798D01*
X191755904Y-134423104D01*
X191985463Y-134432538D01*
X191859221Y-134506204D01*
X191822397Y-134527669D01*
X191735150Y-134578401D01*
X191639124Y-134634100D01*
X191539500Y-134691773D01*
X191441457Y-134748430D01*
X191350177Y-134801078D01*
X191270839Y-134846725D01*
X191208624Y-134882378D01*
X191168711Y-134905046D01*
X191127827Y-134928162D01*
X191064150Y-134964499D01*
X191001815Y-135000362D01*
X190969958Y-135018783D01*
X190912255Y-135052144D01*
X190834376Y-135097167D01*
X190740156Y-135151635D01*
X190633431Y-135213329D01*
X190518037Y-135280032D01*
X190397810Y-135349528D01*
X190297072Y-135407762D01*
X190174407Y-135478686D01*
X190057110Y-135546519D01*
X189949612Y-135608700D01*
X189856344Y-135662664D01*
X189781738Y-135705849D01*
X189730225Y-135735690D01*
X189675949Y-135767098D01*
X189606189Y-135807305D01*
X189546138Y-135841743D01*
X189504680Y-135865307D01*
X189498430Y-135868834D01*
X189447701Y-135897898D01*
X189379541Y-135937423D01*
X189301442Y-135983013D01*
X189220897Y-136030274D01*
X189145398Y-136074812D01*
X189082438Y-136112231D01*
X189039509Y-136138139D01*
X188984589Y-136171880D01*
X188904403Y-136127330D01*
X188902606Y-136126329D01*
X188865876Y-136105504D01*
X188806463Y-136071424D01*
X188728797Y-136026647D01*
X188637309Y-135973732D01*
X188536428Y-135915235D01*
X188430584Y-135853717D01*
X188321184Y-135790053D01*
X188222679Y-135732730D01*
X188145014Y-135687540D01*
X188084694Y-135652456D01*
X188038225Y-135625450D01*
X188002113Y-135604495D01*
X187972865Y-135587564D01*
X187946987Y-135572629D01*
X187920984Y-135557664D01*
X187891363Y-135540641D01*
X187854631Y-135519534D01*
X187839853Y-135511034D01*
X187766334Y-135468638D01*
X187692421Y-135425862D01*
X187632103Y-135390800D01*
X187620840Y-135384234D01*
X187523000Y-135327512D01*
X187400377Y-135256891D01*
X187255544Y-135173853D01*
X187194876Y-135139028D01*
X187093962Y-135080826D01*
X186967088Y-135007410D01*
X186813517Y-134918353D01*
X186799345Y-134910133D01*
X186719047Y-134863669D01*
X186620533Y-134806801D01*
X186511513Y-134743974D01*
X186399694Y-134679631D01*
X186292786Y-134618214D01*
X185970740Y-134433386D01*
X186078731Y-134415190D01*
X186097465Y-134411877D01*
X186179786Y-134392476D01*
X186255037Y-134364702D01*
X186327415Y-134325594D01*
X186401113Y-134272192D01*
X186480329Y-134201538D01*
X186569257Y-134110672D01*
X186672093Y-133996634D01*
X186775726Y-133878626D01*
X187016877Y-134017904D01*
G37*
D11*
%TO.C,REF\u002A\u002A*%
X96357002Y-137614242D02*
X96391247Y-137635142D01*
X96426729Y-137663873D01*
X96426729Y-138525871D01*
X96391247Y-138554602D01*
X96349495Y-138577867D01*
X96301832Y-138578980D01*
X96259976Y-138551696D01*
X96254815Y-138545486D01*
X96247538Y-138532881D01*
X96241937Y-138514666D01*
X96237794Y-138487347D01*
X96234892Y-138447433D01*
X96233014Y-138391430D01*
X96231941Y-138315847D01*
X96231457Y-138217190D01*
X96231344Y-138091966D01*
X96231344Y-137663873D01*
X96266826Y-137635142D01*
X96298396Y-137615477D01*
X96329037Y-137606410D01*
X96357002Y-137614242D01*
G36*
X96357002Y-137614242D02*
G01*
X96391247Y-137635142D01*
X96426729Y-137663873D01*
X96426729Y-138525871D01*
X96391247Y-138554602D01*
X96349495Y-138577867D01*
X96301832Y-138578980D01*
X96259976Y-138551696D01*
X96254815Y-138545486D01*
X96247538Y-138532881D01*
X96241937Y-138514666D01*
X96237794Y-138487347D01*
X96234892Y-138447433D01*
X96233014Y-138391430D01*
X96231941Y-138315847D01*
X96231457Y-138217190D01*
X96231344Y-138091966D01*
X96231344Y-137663873D01*
X96266826Y-137635142D01*
X96298396Y-137615477D01*
X96329037Y-137606410D01*
X96357002Y-137614242D01*
G37*
X105850579Y-137612264D02*
X105896051Y-137643301D01*
X105932942Y-137680192D01*
X105932942Y-138096978D01*
X105932887Y-138208852D01*
X105932543Y-138307668D01*
X105931650Y-138383226D01*
X105929949Y-138439104D01*
X105927181Y-138478882D01*
X105923088Y-138506136D01*
X105917409Y-138524447D01*
X105909888Y-138537391D01*
X105900263Y-138548548D01*
X105858374Y-138577125D01*
X105811556Y-138579476D01*
X105767617Y-138553274D01*
X105760551Y-138545461D01*
X105753296Y-138533367D01*
X105747750Y-138515605D01*
X105743683Y-138488690D01*
X105740869Y-138449138D01*
X105739077Y-138393465D01*
X105738081Y-138318185D01*
X105737650Y-138219816D01*
X105737557Y-138094872D01*
X105737610Y-137994140D01*
X105737949Y-137890414D01*
X105738807Y-137810519D01*
X105740410Y-137750971D01*
X105742988Y-137708284D01*
X105746769Y-137678975D01*
X105751982Y-137659559D01*
X105758855Y-137646552D01*
X105767617Y-137636470D01*
X105806470Y-137611145D01*
X105850579Y-137612264D01*
G36*
X105850579Y-137612264D02*
G01*
X105896051Y-137643301D01*
X105932942Y-137680192D01*
X105932942Y-138096978D01*
X105932887Y-138208852D01*
X105932543Y-138307668D01*
X105931650Y-138383226D01*
X105929949Y-138439104D01*
X105927181Y-138478882D01*
X105923088Y-138506136D01*
X105917409Y-138524447D01*
X105909888Y-138537391D01*
X105900263Y-138548548D01*
X105858374Y-138577125D01*
X105811556Y-138579476D01*
X105767617Y-138553274D01*
X105760551Y-138545461D01*
X105753296Y-138533367D01*
X105747750Y-138515605D01*
X105743683Y-138488690D01*
X105740869Y-138449138D01*
X105739077Y-138393465D01*
X105738081Y-138318185D01*
X105737650Y-138219816D01*
X105737557Y-138094872D01*
X105737610Y-137994140D01*
X105737949Y-137890414D01*
X105738807Y-137810519D01*
X105740410Y-137750971D01*
X105742988Y-137708284D01*
X105746769Y-137678975D01*
X105751982Y-137659559D01*
X105758855Y-137646552D01*
X105767617Y-137636470D01*
X105806470Y-137611145D01*
X105850579Y-137612264D01*
G37*
X105936337Y-129070839D02*
X106075779Y-129105005D01*
X106207955Y-129166325D01*
X106328699Y-129254810D01*
X106433846Y-129370470D01*
X106519230Y-129513313D01*
X106542121Y-129563633D01*
X106560666Y-129614636D01*
X106571072Y-129665624D01*
X106575633Y-129728691D01*
X106576643Y-129815929D01*
X106576032Y-129888539D01*
X106572350Y-129955270D01*
X106563322Y-130007334D01*
X106546694Y-130056686D01*
X106520212Y-130115286D01*
X106512552Y-130130902D01*
X106422006Y-130273893D01*
X106308125Y-130391543D01*
X106174141Y-130481089D01*
X106023286Y-130539772D01*
X105945881Y-130556147D01*
X105788849Y-130563810D01*
X105636753Y-130539016D01*
X105494054Y-130484306D01*
X105365212Y-130402223D01*
X105254686Y-130295309D01*
X105166936Y-130166107D01*
X105106423Y-130017158D01*
X105084283Y-129895265D01*
X105082288Y-129760751D01*
X105100295Y-129629908D01*
X105137446Y-129516572D01*
X105180372Y-129435543D01*
X105275933Y-129306987D01*
X105389221Y-129205527D01*
X105516071Y-129131172D01*
X105652318Y-129083933D01*
X105793795Y-129063818D01*
X105936337Y-129070839D01*
G36*
X105936337Y-129070839D02*
G01*
X106075779Y-129105005D01*
X106207955Y-129166325D01*
X106328699Y-129254810D01*
X106433846Y-129370470D01*
X106519230Y-129513313D01*
X106542121Y-129563633D01*
X106560666Y-129614636D01*
X106571072Y-129665624D01*
X106575633Y-129728691D01*
X106576643Y-129815929D01*
X106576032Y-129888539D01*
X106572350Y-129955270D01*
X106563322Y-130007334D01*
X106546694Y-130056686D01*
X106520212Y-130115286D01*
X106512552Y-130130902D01*
X106422006Y-130273893D01*
X106308125Y-130391543D01*
X106174141Y-130481089D01*
X106023286Y-130539772D01*
X105945881Y-130556147D01*
X105788849Y-130563810D01*
X105636753Y-130539016D01*
X105494054Y-130484306D01*
X105365212Y-130402223D01*
X105254686Y-130295309D01*
X105166936Y-130166107D01*
X105106423Y-130017158D01*
X105084283Y-129895265D01*
X105082288Y-129760751D01*
X105100295Y-129629908D01*
X105137446Y-129516572D01*
X105180372Y-129435543D01*
X105275933Y-129306987D01*
X105389221Y-129205527D01*
X105516071Y-129131172D01*
X105652318Y-129083933D01*
X105793795Y-129063818D01*
X105936337Y-129070839D01*
G37*
X95425531Y-137606412D02*
X95550843Y-137606532D01*
X95650048Y-137606984D01*
X95726478Y-137607972D01*
X95783459Y-137609697D01*
X95824323Y-137612361D01*
X95852397Y-137616169D01*
X95871012Y-137621321D01*
X95883496Y-137628020D01*
X95893179Y-137636470D01*
X95918216Y-137680029D01*
X95920142Y-137730057D01*
X95898364Y-137774310D01*
X95896553Y-137776245D01*
X95881638Y-137787376D01*
X95858868Y-137794771D01*
X95822696Y-137799157D01*
X95767573Y-137801256D01*
X95687950Y-137801795D01*
X95502409Y-137801795D01*
X95502409Y-138152963D01*
X95502309Y-138253918D01*
X95501766Y-138342674D01*
X95500458Y-138408955D01*
X95498067Y-138456773D01*
X95494271Y-138490146D01*
X95488752Y-138513086D01*
X95481188Y-138529610D01*
X95471259Y-138543733D01*
X95468210Y-138547469D01*
X95426700Y-138577614D01*
X95380929Y-138579696D01*
X95337084Y-138553274D01*
X95327793Y-138542523D01*
X95320508Y-138528412D01*
X95315156Y-138507319D01*
X95311440Y-138475398D01*
X95309064Y-138428802D01*
X95307734Y-138363685D01*
X95307153Y-138276201D01*
X95307025Y-138162505D01*
X95307025Y-137801795D01*
X95112731Y-137801795D01*
X95097953Y-137801794D01*
X95022708Y-137801494D01*
X94970992Y-137799977D01*
X94937185Y-137796250D01*
X94915668Y-137789318D01*
X94900821Y-137778186D01*
X94887024Y-137761860D01*
X94865926Y-137721003D01*
X94870056Y-137676029D01*
X94904197Y-137632712D01*
X94910775Y-137627763D01*
X94924369Y-137621325D01*
X94944906Y-137616314D01*
X94975689Y-137612557D01*
X95020020Y-137609876D01*
X95081201Y-137608096D01*
X95162535Y-137607043D01*
X95267323Y-137606539D01*
X95398867Y-137606410D01*
X95425531Y-137606412D01*
G36*
X95425531Y-137606412D02*
G01*
X95550843Y-137606532D01*
X95650048Y-137606984D01*
X95726478Y-137607972D01*
X95783459Y-137609697D01*
X95824323Y-137612361D01*
X95852397Y-137616169D01*
X95871012Y-137621321D01*
X95883496Y-137628020D01*
X95893179Y-137636470D01*
X95918216Y-137680029D01*
X95920142Y-137730057D01*
X95898364Y-137774310D01*
X95896553Y-137776245D01*
X95881638Y-137787376D01*
X95858868Y-137794771D01*
X95822696Y-137799157D01*
X95767573Y-137801256D01*
X95687950Y-137801795D01*
X95502409Y-137801795D01*
X95502409Y-138152963D01*
X95502309Y-138253918D01*
X95501766Y-138342674D01*
X95500458Y-138408955D01*
X95498067Y-138456773D01*
X95494271Y-138490146D01*
X95488752Y-138513086D01*
X95481188Y-138529610D01*
X95471259Y-138543733D01*
X95468210Y-138547469D01*
X95426700Y-138577614D01*
X95380929Y-138579696D01*
X95337084Y-138553274D01*
X95327793Y-138542523D01*
X95320508Y-138528412D01*
X95315156Y-138507319D01*
X95311440Y-138475398D01*
X95309064Y-138428802D01*
X95307734Y-138363685D01*
X95307153Y-138276201D01*
X95307025Y-138162505D01*
X95307025Y-137801795D01*
X95112731Y-137801795D01*
X95097953Y-137801794D01*
X95022708Y-137801494D01*
X94970992Y-137799977D01*
X94937185Y-137796250D01*
X94915668Y-137789318D01*
X94900821Y-137778186D01*
X94887024Y-137761860D01*
X94865926Y-137721003D01*
X94870056Y-137676029D01*
X94904197Y-137632712D01*
X94910775Y-137627763D01*
X94924369Y-137621325D01*
X94944906Y-137616314D01*
X94975689Y-137612557D01*
X95020020Y-137609876D01*
X95081201Y-137608096D01*
X95162535Y-137607043D01*
X95267323Y-137606539D01*
X95398867Y-137606410D01*
X95425531Y-137606412D01*
G37*
X94525486Y-137636470D02*
X94532985Y-137644711D01*
X94539762Y-137655636D01*
X94545202Y-137671315D01*
X94549434Y-137694559D01*
X94552584Y-137728181D01*
X94554782Y-137774992D01*
X94556155Y-137837803D01*
X94556832Y-137919427D01*
X94556940Y-138022674D01*
X94556608Y-138150357D01*
X94555964Y-138305286D01*
X94555872Y-138324158D01*
X94555092Y-138406386D01*
X94553331Y-138464544D01*
X94549942Y-138503660D01*
X94544277Y-138528761D01*
X94535688Y-138544876D01*
X94523527Y-138557032D01*
X94478983Y-138580220D01*
X94432454Y-138576357D01*
X94391311Y-138543733D01*
X94379316Y-138526155D01*
X94369396Y-138501477D01*
X94363581Y-138466824D01*
X94360845Y-138415505D01*
X94360161Y-138340833D01*
X94360161Y-138177535D01*
X93698859Y-138177535D01*
X93698859Y-138357038D01*
X93698762Y-138404688D01*
X93697747Y-138466370D01*
X93694849Y-138507022D01*
X93689128Y-138532358D01*
X93679644Y-138548092D01*
X93665456Y-138559937D01*
X93622518Y-138580000D01*
X93575539Y-138576449D01*
X93534625Y-138543733D01*
X93528426Y-138535405D01*
X93520524Y-138521394D01*
X93514491Y-138502848D01*
X93510077Y-138476123D01*
X93507029Y-138437570D01*
X93505097Y-138383544D01*
X93504028Y-138310398D01*
X93503571Y-138214486D01*
X93503475Y-138092162D01*
X93503475Y-137680192D01*
X93540365Y-137643301D01*
X93582141Y-137613688D01*
X93626381Y-137610107D01*
X93668800Y-137636470D01*
X93679831Y-137649478D01*
X93689699Y-137670636D01*
X93695474Y-137702545D01*
X93698184Y-137751636D01*
X93698859Y-137824339D01*
X93698859Y-137982150D01*
X94360161Y-137982150D01*
X94360161Y-137828360D01*
X94360744Y-137759533D01*
X94363359Y-137713568D01*
X94369371Y-137683511D01*
X94380147Y-137662407D01*
X94397052Y-137643301D01*
X94438828Y-137613688D01*
X94483067Y-137610107D01*
X94525486Y-137636470D01*
G36*
X94525486Y-137636470D02*
G01*
X94532985Y-137644711D01*
X94539762Y-137655636D01*
X94545202Y-137671315D01*
X94549434Y-137694559D01*
X94552584Y-137728181D01*
X94554782Y-137774992D01*
X94556155Y-137837803D01*
X94556832Y-137919427D01*
X94556940Y-138022674D01*
X94556608Y-138150357D01*
X94555964Y-138305286D01*
X94555872Y-138324158D01*
X94555092Y-138406386D01*
X94553331Y-138464544D01*
X94549942Y-138503660D01*
X94544277Y-138528761D01*
X94535688Y-138544876D01*
X94523527Y-138557032D01*
X94478983Y-138580220D01*
X94432454Y-138576357D01*
X94391311Y-138543733D01*
X94379316Y-138526155D01*
X94369396Y-138501477D01*
X94363581Y-138466824D01*
X94360845Y-138415505D01*
X94360161Y-138340833D01*
X94360161Y-138177535D01*
X93698859Y-138177535D01*
X93698859Y-138357038D01*
X93698762Y-138404688D01*
X93697747Y-138466370D01*
X93694849Y-138507022D01*
X93689128Y-138532358D01*
X93679644Y-138548092D01*
X93665456Y-138559937D01*
X93622518Y-138580000D01*
X93575539Y-138576449D01*
X93534625Y-138543733D01*
X93528426Y-138535405D01*
X93520524Y-138521394D01*
X93514491Y-138502848D01*
X93510077Y-138476123D01*
X93507029Y-138437570D01*
X93505097Y-138383544D01*
X93504028Y-138310398D01*
X93503571Y-138214486D01*
X93503475Y-138092162D01*
X93503475Y-137680192D01*
X93540365Y-137643301D01*
X93582141Y-137613688D01*
X93626381Y-137610107D01*
X93668800Y-137636470D01*
X93679831Y-137649478D01*
X93689699Y-137670636D01*
X93695474Y-137702545D01*
X93698184Y-137751636D01*
X93698859Y-137824339D01*
X93698859Y-137982150D01*
X94360161Y-137982150D01*
X94360161Y-137828360D01*
X94360744Y-137759533D01*
X94363359Y-137713568D01*
X94369371Y-137683511D01*
X94380147Y-137662407D01*
X94397052Y-137643301D01*
X94438828Y-137613688D01*
X94483067Y-137610107D01*
X94525486Y-137636470D01*
G37*
X100790071Y-138420311D02*
X100787449Y-138463950D01*
X100783550Y-138494466D01*
X100778122Y-138515504D01*
X100770914Y-138530711D01*
X100761674Y-138543733D01*
X100730524Y-138583334D01*
X100509928Y-138582543D01*
X100463602Y-138582146D01*
X100332485Y-138577579D01*
X100224696Y-138567351D01*
X100135369Y-138550632D01*
X100059637Y-138526595D01*
X99992634Y-138494409D01*
X99988162Y-138491857D01*
X99911194Y-138442972D01*
X99854805Y-138393757D01*
X99811115Y-138335862D01*
X99772239Y-138260937D01*
X99766539Y-138248135D01*
X99736480Y-138164012D01*
X99728845Y-138103362D01*
X99927544Y-138103362D01*
X99935017Y-138136284D01*
X99942640Y-138157424D01*
X99986482Y-138237183D01*
X100049506Y-138298097D01*
X100134401Y-138342212D01*
X100243851Y-138371575D01*
X100247570Y-138372243D01*
X100309193Y-138380181D01*
X100384277Y-138385810D01*
X100457418Y-138387949D01*
X100582409Y-138387949D01*
X100582409Y-137801795D01*
X100465930Y-137802392D01*
X100376836Y-137805688D01*
X100253821Y-137820668D01*
X100148224Y-137846682D01*
X100065713Y-137882594D01*
X100024521Y-137910191D01*
X99987083Y-137949820D01*
X99956010Y-138006307D01*
X99946521Y-138027564D01*
X99930779Y-138070836D01*
X99927544Y-138103362D01*
X99728845Y-138103362D01*
X99727199Y-138090284D01*
X99738651Y-138017024D01*
X99770792Y-137934304D01*
X99771851Y-137932050D01*
X99825707Y-137839624D01*
X99893186Y-137764271D01*
X99976697Y-137704935D01*
X100078647Y-137660563D01*
X100201445Y-137630101D01*
X100347499Y-137612493D01*
X100519217Y-137606687D01*
X100523972Y-137606681D01*
X100603881Y-137606867D01*
X100659706Y-137608247D01*
X100697135Y-137611701D01*
X100721857Y-137618108D01*
X100739560Y-137628348D01*
X100755933Y-137643301D01*
X100792824Y-137680192D01*
X100792824Y-138092162D01*
X100792790Y-138174181D01*
X100792490Y-138279072D01*
X100791668Y-138359900D01*
X100790926Y-138387949D01*
X100790071Y-138420311D01*
G36*
X100790071Y-138420311D02*
G01*
X100787449Y-138463950D01*
X100783550Y-138494466D01*
X100778122Y-138515504D01*
X100770914Y-138530711D01*
X100761674Y-138543733D01*
X100730524Y-138583334D01*
X100509928Y-138582543D01*
X100463602Y-138582146D01*
X100332485Y-138577579D01*
X100224696Y-138567351D01*
X100135369Y-138550632D01*
X100059637Y-138526595D01*
X99992634Y-138494409D01*
X99988162Y-138491857D01*
X99911194Y-138442972D01*
X99854805Y-138393757D01*
X99811115Y-138335862D01*
X99772239Y-138260937D01*
X99766539Y-138248135D01*
X99736480Y-138164012D01*
X99728845Y-138103362D01*
X99927544Y-138103362D01*
X99935017Y-138136284D01*
X99942640Y-138157424D01*
X99986482Y-138237183D01*
X100049506Y-138298097D01*
X100134401Y-138342212D01*
X100243851Y-138371575D01*
X100247570Y-138372243D01*
X100309193Y-138380181D01*
X100384277Y-138385810D01*
X100457418Y-138387949D01*
X100582409Y-138387949D01*
X100582409Y-137801795D01*
X100465930Y-137802392D01*
X100376836Y-137805688D01*
X100253821Y-137820668D01*
X100148224Y-137846682D01*
X100065713Y-137882594D01*
X100024521Y-137910191D01*
X99987083Y-137949820D01*
X99956010Y-138006307D01*
X99946521Y-138027564D01*
X99930779Y-138070836D01*
X99927544Y-138103362D01*
X99728845Y-138103362D01*
X99727199Y-138090284D01*
X99738651Y-138017024D01*
X99770792Y-137934304D01*
X99771851Y-137932050D01*
X99825707Y-137839624D01*
X99893186Y-137764271D01*
X99976697Y-137704935D01*
X100078647Y-137660563D01*
X100201445Y-137630101D01*
X100347499Y-137612493D01*
X100519217Y-137606687D01*
X100523972Y-137606681D01*
X100603881Y-137606867D01*
X100659706Y-137608247D01*
X100697135Y-137611701D01*
X100721857Y-137618108D01*
X100739560Y-137628348D01*
X100755933Y-137643301D01*
X100792824Y-137680192D01*
X100792824Y-138092162D01*
X100792790Y-138174181D01*
X100792490Y-138279072D01*
X100791668Y-138359900D01*
X100790926Y-138387949D01*
X100790071Y-138420311D01*
G37*
X110231662Y-137853192D02*
X110231734Y-137960519D01*
X110231403Y-138094872D01*
X110231351Y-138195605D01*
X110231011Y-138299330D01*
X110230154Y-138379225D01*
X110228551Y-138438773D01*
X110225973Y-138481460D01*
X110222192Y-138510769D01*
X110216979Y-138530185D01*
X110210106Y-138543192D01*
X110201344Y-138553274D01*
X110192068Y-138561574D01*
X110174763Y-138571293D01*
X110149270Y-138577622D01*
X110110123Y-138581266D01*
X110051855Y-138582935D01*
X109969000Y-138583334D01*
X109903834Y-138582834D01*
X109761566Y-138576938D01*
X109642771Y-138563508D01*
X109543188Y-138541423D01*
X109458552Y-138509563D01*
X109384600Y-138466808D01*
X109317067Y-138412038D01*
X109309095Y-138404246D01*
X109260011Y-138339663D01*
X109218607Y-138258705D01*
X109190005Y-138173174D01*
X109182974Y-138121593D01*
X109378974Y-138121593D01*
X109403314Y-138189406D01*
X109442816Y-138250538D01*
X109504986Y-138307000D01*
X109586717Y-138346678D01*
X109692090Y-138372155D01*
X109694074Y-138372472D01*
X109759272Y-138380183D01*
X109837415Y-138385696D01*
X109912025Y-138387835D01*
X110036019Y-138387949D01*
X110036019Y-137801795D01*
X109934569Y-137801776D01*
X109930538Y-137801788D01*
X109862479Y-137804404D01*
X109782461Y-137810694D01*
X109706961Y-137819386D01*
X109640449Y-137831763D01*
X109540927Y-137866735D01*
X109464362Y-137919056D01*
X109409109Y-137989665D01*
X109380861Y-138057919D01*
X109378974Y-138121593D01*
X109182974Y-138121593D01*
X109179332Y-138094872D01*
X109181035Y-138066625D01*
X109197427Y-137990184D01*
X109227421Y-137910421D01*
X109266337Y-137838462D01*
X109309495Y-137785433D01*
X109335512Y-137762769D01*
X109408353Y-137710597D01*
X109488638Y-137670483D01*
X109580763Y-137641246D01*
X109689125Y-137621699D01*
X109818119Y-137610660D01*
X109972143Y-137606944D01*
X110024708Y-137606409D01*
X110085566Y-137605859D01*
X110133229Y-137608261D01*
X110169297Y-137616625D01*
X110195368Y-137633960D01*
X110213041Y-137663275D01*
X110223915Y-137707579D01*
X110229590Y-137769881D01*
X110230384Y-137801795D01*
X110231662Y-137853192D01*
G36*
X110231662Y-137853192D02*
G01*
X110231734Y-137960519D01*
X110231403Y-138094872D01*
X110231351Y-138195605D01*
X110231011Y-138299330D01*
X110230154Y-138379225D01*
X110228551Y-138438773D01*
X110225973Y-138481460D01*
X110222192Y-138510769D01*
X110216979Y-138530185D01*
X110210106Y-138543192D01*
X110201344Y-138553274D01*
X110192068Y-138561574D01*
X110174763Y-138571293D01*
X110149270Y-138577622D01*
X110110123Y-138581266D01*
X110051855Y-138582935D01*
X109969000Y-138583334D01*
X109903834Y-138582834D01*
X109761566Y-138576938D01*
X109642771Y-138563508D01*
X109543188Y-138541423D01*
X109458552Y-138509563D01*
X109384600Y-138466808D01*
X109317067Y-138412038D01*
X109309095Y-138404246D01*
X109260011Y-138339663D01*
X109218607Y-138258705D01*
X109190005Y-138173174D01*
X109182974Y-138121593D01*
X109378974Y-138121593D01*
X109403314Y-138189406D01*
X109442816Y-138250538D01*
X109504986Y-138307000D01*
X109586717Y-138346678D01*
X109692090Y-138372155D01*
X109694074Y-138372472D01*
X109759272Y-138380183D01*
X109837415Y-138385696D01*
X109912025Y-138387835D01*
X110036019Y-138387949D01*
X110036019Y-137801795D01*
X109934569Y-137801776D01*
X109930538Y-137801788D01*
X109862479Y-137804404D01*
X109782461Y-137810694D01*
X109706961Y-137819386D01*
X109640449Y-137831763D01*
X109540927Y-137866735D01*
X109464362Y-137919056D01*
X109409109Y-137989665D01*
X109380861Y-138057919D01*
X109378974Y-138121593D01*
X109182974Y-138121593D01*
X109179332Y-138094872D01*
X109181035Y-138066625D01*
X109197427Y-137990184D01*
X109227421Y-137910421D01*
X109266337Y-137838462D01*
X109309495Y-137785433D01*
X109335512Y-137762769D01*
X109408353Y-137710597D01*
X109488638Y-137670483D01*
X109580763Y-137641246D01*
X109689125Y-137621699D01*
X109818119Y-137610660D01*
X109972143Y-137606944D01*
X110024708Y-137606409D01*
X110085566Y-137605859D01*
X110133229Y-137608261D01*
X110169297Y-137616625D01*
X110195368Y-137633960D01*
X110213041Y-137663275D01*
X110223915Y-137707579D01*
X110229590Y-137769881D01*
X110230384Y-137801795D01*
X110231662Y-137853192D01*
G37*
X103648184Y-137604846D02*
X103663372Y-137613017D01*
X103677416Y-137627212D01*
X103692443Y-137646011D01*
X103698371Y-137653948D01*
X103706357Y-137667920D01*
X103712454Y-137686327D01*
X103716916Y-137712827D01*
X103719997Y-137751083D01*
X103721951Y-137804755D01*
X103723033Y-137877503D01*
X103723495Y-137972988D01*
X103723593Y-138094872D01*
X103723562Y-138172797D01*
X103723272Y-138278091D01*
X103722461Y-138359227D01*
X103720875Y-138419866D01*
X103718262Y-138463669D01*
X103714366Y-138494296D01*
X103708933Y-138515409D01*
X103701710Y-138530667D01*
X103692443Y-138543733D01*
X103651931Y-138576209D01*
X103605410Y-138580042D01*
X103556175Y-138554626D01*
X103550605Y-138550000D01*
X103539720Y-138538646D01*
X103531651Y-138523268D01*
X103525816Y-138499526D01*
X103521633Y-138463084D01*
X103518521Y-138409604D01*
X103515897Y-138334747D01*
X103513179Y-138234177D01*
X103505664Y-137942435D01*
X103152469Y-138262814D01*
X103054169Y-138351718D01*
X102967391Y-138429091D01*
X102897902Y-138488946D01*
X102843217Y-138532777D01*
X102800854Y-138562077D01*
X102768332Y-138578340D01*
X102743166Y-138583060D01*
X102722875Y-138577731D01*
X102704976Y-138563846D01*
X102686987Y-138542899D01*
X102678672Y-138531605D01*
X102671174Y-138517523D01*
X102665568Y-138498673D01*
X102661638Y-138471443D01*
X102659168Y-138432221D01*
X102657944Y-138377394D01*
X102657751Y-138303348D01*
X102658373Y-138206471D01*
X102659594Y-138083150D01*
X102664007Y-137663835D01*
X102699489Y-137635123D01*
X102734191Y-137613566D01*
X102777937Y-137609877D01*
X102823910Y-137635110D01*
X102829651Y-137639882D01*
X102840478Y-137651238D01*
X102848505Y-137666671D01*
X102854310Y-137690510D01*
X102858474Y-137727084D01*
X102861576Y-137780722D01*
X102864193Y-137855754D01*
X102866906Y-137956508D01*
X102874421Y-138249207D01*
X103114895Y-138031138D01*
X103230374Y-137926448D01*
X103331253Y-137835392D01*
X103413979Y-137761702D01*
X103480678Y-137703960D01*
X103533476Y-137660749D01*
X103574499Y-137630649D01*
X103605874Y-137612244D01*
X103629727Y-137604116D01*
X103648184Y-137604846D01*
G36*
X103648184Y-137604846D02*
G01*
X103663372Y-137613017D01*
X103677416Y-137627212D01*
X103692443Y-137646011D01*
X103698371Y-137653948D01*
X103706357Y-137667920D01*
X103712454Y-137686327D01*
X103716916Y-137712827D01*
X103719997Y-137751083D01*
X103721951Y-137804755D01*
X103723033Y-137877503D01*
X103723495Y-137972988D01*
X103723593Y-138094872D01*
X103723562Y-138172797D01*
X103723272Y-138278091D01*
X103722461Y-138359227D01*
X103720875Y-138419866D01*
X103718262Y-138463669D01*
X103714366Y-138494296D01*
X103708933Y-138515409D01*
X103701710Y-138530667D01*
X103692443Y-138543733D01*
X103651931Y-138576209D01*
X103605410Y-138580042D01*
X103556175Y-138554626D01*
X103550605Y-138550000D01*
X103539720Y-138538646D01*
X103531651Y-138523268D01*
X103525816Y-138499526D01*
X103521633Y-138463084D01*
X103518521Y-138409604D01*
X103515897Y-138334747D01*
X103513179Y-138234177D01*
X103505664Y-137942435D01*
X103152469Y-138262814D01*
X103054169Y-138351718D01*
X102967391Y-138429091D01*
X102897902Y-138488946D01*
X102843217Y-138532777D01*
X102800854Y-138562077D01*
X102768332Y-138578340D01*
X102743166Y-138583060D01*
X102722875Y-138577731D01*
X102704976Y-138563846D01*
X102686987Y-138542899D01*
X102678672Y-138531605D01*
X102671174Y-138517523D01*
X102665568Y-138498673D01*
X102661638Y-138471443D01*
X102659168Y-138432221D01*
X102657944Y-138377394D01*
X102657751Y-138303348D01*
X102658373Y-138206471D01*
X102659594Y-138083150D01*
X102664007Y-137663835D01*
X102699489Y-137635123D01*
X102734191Y-137613566D01*
X102777937Y-137609877D01*
X102823910Y-137635110D01*
X102829651Y-137639882D01*
X102840478Y-137651238D01*
X102848505Y-137666671D01*
X102854310Y-137690510D01*
X102858474Y-137727084D01*
X102861576Y-137780722D01*
X102864193Y-137855754D01*
X102866906Y-137956508D01*
X102874421Y-138249207D01*
X103114895Y-138031138D01*
X103230374Y-137926448D01*
X103331253Y-137835392D01*
X103413979Y-137761702D01*
X103480678Y-137703960D01*
X103533476Y-137660749D01*
X103574499Y-137630649D01*
X103605874Y-137612244D01*
X103629727Y-137604116D01*
X103648184Y-137604846D01*
G37*
X104709621Y-137613217D02*
X104850754Y-137634938D01*
X104975652Y-137672285D01*
X105080557Y-137724083D01*
X105161709Y-137789162D01*
X105196418Y-137832913D01*
X105235703Y-137898414D01*
X105269349Y-137970119D01*
X105292847Y-138038241D01*
X105301688Y-138092993D01*
X105299611Y-138119241D01*
X105282381Y-138187583D01*
X105251543Y-138262840D01*
X105211746Y-138334622D01*
X105167640Y-138392542D01*
X105154065Y-138406319D01*
X105064750Y-138475250D01*
X104958074Y-138528362D01*
X104843297Y-138560849D01*
X104770120Y-138571649D01*
X104645700Y-138580442D01*
X104526170Y-138577663D01*
X104416346Y-138564023D01*
X104321044Y-138540232D01*
X104245079Y-138506998D01*
X104193267Y-138465033D01*
X104191436Y-138462403D01*
X104182000Y-138428818D01*
X104176356Y-138365910D01*
X104174480Y-138273428D01*
X104175625Y-138190574D01*
X104181909Y-138127491D01*
X104197472Y-138084750D01*
X104226455Y-138058719D01*
X104272998Y-138045764D01*
X104341241Y-138042253D01*
X104435324Y-138044554D01*
X104500055Y-138048564D01*
X104566884Y-138059471D01*
X104610145Y-138078181D01*
X104633389Y-138106453D01*
X104640167Y-138146048D01*
X104640026Y-138152094D01*
X104628440Y-138198417D01*
X104596475Y-138229594D01*
X104541536Y-138247168D01*
X104461031Y-138252683D01*
X104369865Y-138252683D01*
X104369865Y-138303743D01*
X104369932Y-138315906D01*
X104372888Y-138338873D01*
X104385226Y-138352578D01*
X104413692Y-138361814D01*
X104465031Y-138371376D01*
X104472319Y-138372620D01*
X104601395Y-138385805D01*
X104721206Y-138381918D01*
X104828924Y-138362307D01*
X104921718Y-138328317D01*
X104996760Y-138281293D01*
X105051220Y-138222581D01*
X105082270Y-138153527D01*
X105087079Y-138075478D01*
X105079732Y-138037008D01*
X105044207Y-137962599D01*
X104982713Y-137901810D01*
X104896199Y-137855431D01*
X104785614Y-137824252D01*
X104752763Y-137818329D01*
X104633834Y-137804351D01*
X104527582Y-137805987D01*
X104423613Y-137823209D01*
X104376824Y-137832248D01*
X104316330Y-137833603D01*
X104274639Y-137816919D01*
X104247807Y-137781256D01*
X104239308Y-137743649D01*
X104251938Y-137702078D01*
X104264358Y-137684204D01*
X104309936Y-137652875D01*
X104379995Y-137629082D01*
X104471216Y-137613776D01*
X104580279Y-137607909D01*
X104709621Y-137613217D01*
G36*
X104709621Y-137613217D02*
G01*
X104850754Y-137634938D01*
X104975652Y-137672285D01*
X105080557Y-137724083D01*
X105161709Y-137789162D01*
X105196418Y-137832913D01*
X105235703Y-137898414D01*
X105269349Y-137970119D01*
X105292847Y-138038241D01*
X105301688Y-138092993D01*
X105299611Y-138119241D01*
X105282381Y-138187583D01*
X105251543Y-138262840D01*
X105211746Y-138334622D01*
X105167640Y-138392542D01*
X105154065Y-138406319D01*
X105064750Y-138475250D01*
X104958074Y-138528362D01*
X104843297Y-138560849D01*
X104770120Y-138571649D01*
X104645700Y-138580442D01*
X104526170Y-138577663D01*
X104416346Y-138564023D01*
X104321044Y-138540232D01*
X104245079Y-138506998D01*
X104193267Y-138465033D01*
X104191436Y-138462403D01*
X104182000Y-138428818D01*
X104176356Y-138365910D01*
X104174480Y-138273428D01*
X104175625Y-138190574D01*
X104181909Y-138127491D01*
X104197472Y-138084750D01*
X104226455Y-138058719D01*
X104272998Y-138045764D01*
X104341241Y-138042253D01*
X104435324Y-138044554D01*
X104500055Y-138048564D01*
X104566884Y-138059471D01*
X104610145Y-138078181D01*
X104633389Y-138106453D01*
X104640167Y-138146048D01*
X104640026Y-138152094D01*
X104628440Y-138198417D01*
X104596475Y-138229594D01*
X104541536Y-138247168D01*
X104461031Y-138252683D01*
X104369865Y-138252683D01*
X104369865Y-138303743D01*
X104369932Y-138315906D01*
X104372888Y-138338873D01*
X104385226Y-138352578D01*
X104413692Y-138361814D01*
X104465031Y-138371376D01*
X104472319Y-138372620D01*
X104601395Y-138385805D01*
X104721206Y-138381918D01*
X104828924Y-138362307D01*
X104921718Y-138328317D01*
X104996760Y-138281293D01*
X105051220Y-138222581D01*
X105082270Y-138153527D01*
X105087079Y-138075478D01*
X105079732Y-138037008D01*
X105044207Y-137962599D01*
X104982713Y-137901810D01*
X104896199Y-137855431D01*
X104785614Y-137824252D01*
X104752763Y-137818329D01*
X104633834Y-137804351D01*
X104527582Y-137805987D01*
X104423613Y-137823209D01*
X104376824Y-137832248D01*
X104316330Y-137833603D01*
X104274639Y-137816919D01*
X104247807Y-137781256D01*
X104239308Y-137743649D01*
X104251938Y-137702078D01*
X104264358Y-137684204D01*
X104309936Y-137652875D01*
X104379995Y-137629082D01*
X104471216Y-137613776D01*
X104580279Y-137607909D01*
X104709621Y-137613217D01*
G37*
X102114336Y-137646011D02*
X102120925Y-137654910D01*
X102128706Y-137668984D01*
X102134645Y-137687739D01*
X102138991Y-137714799D01*
X102141990Y-137753790D01*
X102143892Y-137808339D01*
X102144943Y-137882069D01*
X102145392Y-137978608D01*
X102145486Y-138101580D01*
X102145448Y-138189339D01*
X102145139Y-138293607D01*
X102144313Y-138373845D01*
X102142725Y-138433621D01*
X102140132Y-138476502D01*
X102136291Y-138506056D01*
X102130958Y-138525852D01*
X102123890Y-138539457D01*
X102114842Y-138550440D01*
X102108831Y-138556641D01*
X102097874Y-138565277D01*
X102082750Y-138571816D01*
X102059760Y-138576550D01*
X102025204Y-138579769D01*
X101975386Y-138581766D01*
X101906604Y-138582831D01*
X101815161Y-138583256D01*
X101697357Y-138583334D01*
X101671163Y-138583325D01*
X101555302Y-138582970D01*
X101465232Y-138581951D01*
X101397393Y-138580068D01*
X101348224Y-138577123D01*
X101314162Y-138572919D01*
X101291646Y-138567256D01*
X101277115Y-138559937D01*
X101263145Y-138546642D01*
X101245490Y-138505214D01*
X101247064Y-138457434D01*
X101268585Y-138415434D01*
X101271500Y-138412404D01*
X101283066Y-138404059D01*
X101300829Y-138397847D01*
X101328765Y-138393458D01*
X101370851Y-138390584D01*
X101431065Y-138388914D01*
X101513382Y-138388139D01*
X101621780Y-138387949D01*
X101950102Y-138387949D01*
X101950102Y-138177535D01*
X101733838Y-138177535D01*
X101686350Y-138177428D01*
X101612100Y-138176366D01*
X101559993Y-138173697D01*
X101524774Y-138168849D01*
X101501185Y-138161249D01*
X101483971Y-138150325D01*
X101479121Y-138146086D01*
X101454614Y-138104847D01*
X101453770Y-138056471D01*
X101477120Y-138011711D01*
X101477203Y-138011620D01*
X101490078Y-138000135D01*
X101507777Y-137992073D01*
X101535346Y-137986839D01*
X101577831Y-137983837D01*
X101640279Y-137982473D01*
X101727737Y-137982150D01*
X101951602Y-137982150D01*
X101947094Y-137895730D01*
X101942587Y-137809310D01*
X101620295Y-137805245D01*
X101586989Y-137804809D01*
X101478324Y-137802839D01*
X101395354Y-137799665D01*
X101334626Y-137794345D01*
X101292685Y-137785940D01*
X101266078Y-137773506D01*
X101251349Y-137756103D01*
X101245045Y-137732790D01*
X101243711Y-137702626D01*
X101243719Y-137699476D01*
X101245255Y-137672808D01*
X101251643Y-137651782D01*
X101266032Y-137635731D01*
X101291573Y-137623984D01*
X101331419Y-137615874D01*
X101388718Y-137610730D01*
X101466623Y-137607884D01*
X101568284Y-137606667D01*
X101696852Y-137606410D01*
X102083186Y-137606410D01*
X102114336Y-137646011D01*
G36*
X102114336Y-137646011D02*
G01*
X102120925Y-137654910D01*
X102128706Y-137668984D01*
X102134645Y-137687739D01*
X102138991Y-137714799D01*
X102141990Y-137753790D01*
X102143892Y-137808339D01*
X102144943Y-137882069D01*
X102145392Y-137978608D01*
X102145486Y-138101580D01*
X102145448Y-138189339D01*
X102145139Y-138293607D01*
X102144313Y-138373845D01*
X102142725Y-138433621D01*
X102140132Y-138476502D01*
X102136291Y-138506056D01*
X102130958Y-138525852D01*
X102123890Y-138539457D01*
X102114842Y-138550440D01*
X102108831Y-138556641D01*
X102097874Y-138565277D01*
X102082750Y-138571816D01*
X102059760Y-138576550D01*
X102025204Y-138579769D01*
X101975386Y-138581766D01*
X101906604Y-138582831D01*
X101815161Y-138583256D01*
X101697357Y-138583334D01*
X101671163Y-138583325D01*
X101555302Y-138582970D01*
X101465232Y-138581951D01*
X101397393Y-138580068D01*
X101348224Y-138577123D01*
X101314162Y-138572919D01*
X101291646Y-138567256D01*
X101277115Y-138559937D01*
X101263145Y-138546642D01*
X101245490Y-138505214D01*
X101247064Y-138457434D01*
X101268585Y-138415434D01*
X101271500Y-138412404D01*
X101283066Y-138404059D01*
X101300829Y-138397847D01*
X101328765Y-138393458D01*
X101370851Y-138390584D01*
X101431065Y-138388914D01*
X101513382Y-138388139D01*
X101621780Y-138387949D01*
X101950102Y-138387949D01*
X101950102Y-138177535D01*
X101733838Y-138177535D01*
X101686350Y-138177428D01*
X101612100Y-138176366D01*
X101559993Y-138173697D01*
X101524774Y-138168849D01*
X101501185Y-138161249D01*
X101483971Y-138150325D01*
X101479121Y-138146086D01*
X101454614Y-138104847D01*
X101453770Y-138056471D01*
X101477120Y-138011711D01*
X101477203Y-138011620D01*
X101490078Y-138000135D01*
X101507777Y-137992073D01*
X101535346Y-137986839D01*
X101577831Y-137983837D01*
X101640279Y-137982473D01*
X101727737Y-137982150D01*
X101951602Y-137982150D01*
X101947094Y-137895730D01*
X101942587Y-137809310D01*
X101620295Y-137805245D01*
X101586989Y-137804809D01*
X101478324Y-137802839D01*
X101395354Y-137799665D01*
X101334626Y-137794345D01*
X101292685Y-137785940D01*
X101266078Y-137773506D01*
X101251349Y-137756103D01*
X101245045Y-137732790D01*
X101243711Y-137702626D01*
X101243719Y-137699476D01*
X101245255Y-137672808D01*
X101251643Y-137651782D01*
X101266032Y-137635731D01*
X101291573Y-137623984D01*
X101331419Y-137615874D01*
X101388718Y-137610730D01*
X101466623Y-137607884D01*
X101568284Y-137606667D01*
X101696852Y-137606410D01*
X102083186Y-137606410D01*
X102114336Y-137646011D01*
G37*
X108341020Y-137606432D02*
X108443663Y-137606688D01*
X108522142Y-137607466D01*
X108580172Y-137609052D01*
X108621469Y-137611732D01*
X108649750Y-137615790D01*
X108668732Y-137621512D01*
X108682129Y-137629183D01*
X108693660Y-137639090D01*
X108696036Y-137641327D01*
X108705680Y-137651364D01*
X108713191Y-137663370D01*
X108718837Y-137680857D01*
X108722883Y-137707334D01*
X108725596Y-137746315D01*
X108727242Y-137801310D01*
X108728088Y-137875830D01*
X108728400Y-137973387D01*
X108728445Y-138097492D01*
X108728396Y-138194401D01*
X108728065Y-138298481D01*
X108727218Y-138378648D01*
X108725624Y-138438398D01*
X108723053Y-138481228D01*
X108719275Y-138510634D01*
X108714058Y-138530112D01*
X108707171Y-138543160D01*
X108698386Y-138553274D01*
X108693947Y-138557504D01*
X108682601Y-138565640D01*
X108666622Y-138571863D01*
X108642377Y-138576430D01*
X108606235Y-138579595D01*
X108554563Y-138581613D01*
X108483728Y-138582739D01*
X108390098Y-138583227D01*
X108270043Y-138583334D01*
X108213981Y-138583318D01*
X108105945Y-138583075D01*
X108022745Y-138582339D01*
X107960749Y-138580854D01*
X107916325Y-138578365D01*
X107885840Y-138574618D01*
X107865662Y-138569357D01*
X107852159Y-138562327D01*
X107841699Y-138553274D01*
X107822093Y-138524518D01*
X107811640Y-138485641D01*
X107818961Y-138453813D01*
X107841699Y-138418008D01*
X107848328Y-138411873D01*
X107861342Y-138403503D01*
X107880135Y-138397345D01*
X107908753Y-138393063D01*
X107951243Y-138390320D01*
X108011651Y-138388778D01*
X108094024Y-138388100D01*
X108202409Y-138387949D01*
X108533060Y-138387949D01*
X108533060Y-138177535D01*
X108318475Y-138177535D01*
X108270789Y-138177341D01*
X108183420Y-138175048D01*
X108120525Y-138169143D01*
X108078274Y-138158353D01*
X108052837Y-138141404D01*
X108040384Y-138117021D01*
X108037084Y-138083931D01*
X108038146Y-138056963D01*
X108045138Y-138027905D01*
X108062171Y-138007467D01*
X108093245Y-137994159D01*
X108142357Y-137986496D01*
X108213508Y-137982989D01*
X108310696Y-137982150D01*
X108534560Y-137982150D01*
X108525546Y-137809310D01*
X108195745Y-137805251D01*
X108112414Y-137804081D01*
X108021268Y-137802158D01*
X107953496Y-137799588D01*
X107905230Y-137796059D01*
X107872602Y-137791261D01*
X107851746Y-137784885D01*
X107838793Y-137776620D01*
X107830784Y-137768095D01*
X107813465Y-137725916D01*
X107818205Y-137678404D01*
X107844533Y-137637055D01*
X107848863Y-137633163D01*
X107860818Y-137624707D01*
X107876932Y-137618247D01*
X107900905Y-137613515D01*
X107936437Y-137610244D01*
X107987227Y-137608165D01*
X108056976Y-137607012D01*
X108149384Y-137606516D01*
X108268150Y-137606410D01*
X108341020Y-137606432D01*
G36*
X108341020Y-137606432D02*
G01*
X108443663Y-137606688D01*
X108522142Y-137607466D01*
X108580172Y-137609052D01*
X108621469Y-137611732D01*
X108649750Y-137615790D01*
X108668732Y-137621512D01*
X108682129Y-137629183D01*
X108693660Y-137639090D01*
X108696036Y-137641327D01*
X108705680Y-137651364D01*
X108713191Y-137663370D01*
X108718837Y-137680857D01*
X108722883Y-137707334D01*
X108725596Y-137746315D01*
X108727242Y-137801310D01*
X108728088Y-137875830D01*
X108728400Y-137973387D01*
X108728445Y-138097492D01*
X108728396Y-138194401D01*
X108728065Y-138298481D01*
X108727218Y-138378648D01*
X108725624Y-138438398D01*
X108723053Y-138481228D01*
X108719275Y-138510634D01*
X108714058Y-138530112D01*
X108707171Y-138543160D01*
X108698386Y-138553274D01*
X108693947Y-138557504D01*
X108682601Y-138565640D01*
X108666622Y-138571863D01*
X108642377Y-138576430D01*
X108606235Y-138579595D01*
X108554563Y-138581613D01*
X108483728Y-138582739D01*
X108390098Y-138583227D01*
X108270043Y-138583334D01*
X108213981Y-138583318D01*
X108105945Y-138583075D01*
X108022745Y-138582339D01*
X107960749Y-138580854D01*
X107916325Y-138578365D01*
X107885840Y-138574618D01*
X107865662Y-138569357D01*
X107852159Y-138562327D01*
X107841699Y-138553274D01*
X107822093Y-138524518D01*
X107811640Y-138485641D01*
X107818961Y-138453813D01*
X107841699Y-138418008D01*
X107848328Y-138411873D01*
X107861342Y-138403503D01*
X107880135Y-138397345D01*
X107908753Y-138393063D01*
X107951243Y-138390320D01*
X108011651Y-138388778D01*
X108094024Y-138388100D01*
X108202409Y-138387949D01*
X108533060Y-138387949D01*
X108533060Y-138177535D01*
X108318475Y-138177535D01*
X108270789Y-138177341D01*
X108183420Y-138175048D01*
X108120525Y-138169143D01*
X108078274Y-138158353D01*
X108052837Y-138141404D01*
X108040384Y-138117021D01*
X108037084Y-138083931D01*
X108038146Y-138056963D01*
X108045138Y-138027905D01*
X108062171Y-138007467D01*
X108093245Y-137994159D01*
X108142357Y-137986496D01*
X108213508Y-137982989D01*
X108310696Y-137982150D01*
X108534560Y-137982150D01*
X108525546Y-137809310D01*
X108195745Y-137805251D01*
X108112414Y-137804081D01*
X108021268Y-137802158D01*
X107953496Y-137799588D01*
X107905230Y-137796059D01*
X107872602Y-137791261D01*
X107851746Y-137784885D01*
X107838793Y-137776620D01*
X107830784Y-137768095D01*
X107813465Y-137725916D01*
X107818205Y-137678404D01*
X107844533Y-137637055D01*
X107848863Y-137633163D01*
X107860818Y-137624707D01*
X107876932Y-137618247D01*
X107900905Y-137613515D01*
X107936437Y-137610244D01*
X107987227Y-137608165D01*
X108056976Y-137607012D01*
X108149384Y-137606516D01*
X108268150Y-137606410D01*
X108341020Y-137606432D01*
G37*
X96935208Y-137618940D02*
X96959119Y-137643585D01*
X96986546Y-137684966D01*
X97019607Y-137745790D01*
X97060420Y-137828763D01*
X97111104Y-137936594D01*
X97130587Y-137978376D01*
X97170193Y-138062496D01*
X97204935Y-138135196D01*
X97232886Y-138192507D01*
X97252120Y-138230455D01*
X97260711Y-138245069D01*
X97262520Y-138244296D01*
X97275823Y-138225727D01*
X97298844Y-138186401D01*
X97328928Y-138130994D01*
X97363422Y-138064180D01*
X97384687Y-138022258D01*
X97423230Y-137948562D01*
X97453170Y-137896617D01*
X97477422Y-137862697D01*
X97498898Y-137843079D01*
X97520512Y-137834040D01*
X97545177Y-137831854D01*
X97559160Y-137832487D01*
X97580616Y-137838088D01*
X97601005Y-137852552D01*
X97623103Y-137879542D01*
X97649689Y-137922725D01*
X97683540Y-137985765D01*
X97727434Y-138072328D01*
X97740392Y-138097963D01*
X97772954Y-138160096D01*
X97799895Y-138208241D01*
X97818710Y-138238049D01*
X97826897Y-138245168D01*
X97828717Y-138240813D01*
X97841198Y-138212975D01*
X97863646Y-138163796D01*
X97894156Y-138097426D01*
X97930823Y-138018014D01*
X97971742Y-137929707D01*
X98007309Y-137853525D01*
X98046749Y-137770995D01*
X98077465Y-137710100D01*
X98101401Y-137667442D01*
X98120502Y-137639625D01*
X98136713Y-137623253D01*
X98151978Y-137614931D01*
X98164506Y-137611080D01*
X98197930Y-137610882D01*
X98234067Y-137631308D01*
X98235798Y-137632620D01*
X98265200Y-137662756D01*
X98279909Y-137692345D01*
X98279971Y-137693197D01*
X98273926Y-137716711D01*
X98256799Y-137762731D01*
X98230493Y-137827096D01*
X98196910Y-137905645D01*
X98157952Y-137994221D01*
X98115522Y-138088661D01*
X98071522Y-138184807D01*
X98027854Y-138278499D01*
X97986420Y-138365576D01*
X97949123Y-138441880D01*
X97917864Y-138503249D01*
X97894546Y-138545525D01*
X97881071Y-138564547D01*
X97835262Y-138582345D01*
X97779748Y-138573876D01*
X97772606Y-138567622D01*
X97751532Y-138538131D01*
X97721973Y-138489190D01*
X97686803Y-138425661D01*
X97648894Y-138352407D01*
X97542686Y-138140397D01*
X97445248Y-138335563D01*
X97432340Y-138361246D01*
X97396421Y-138430940D01*
X97364431Y-138490571D01*
X97339449Y-138534486D01*
X97324556Y-138557032D01*
X97323030Y-138558687D01*
X97285591Y-138579039D01*
X97238911Y-138581280D01*
X97197584Y-138564547D01*
X97194354Y-138560754D01*
X97178031Y-138533294D01*
X97151754Y-138483300D01*
X97117266Y-138414298D01*
X97076310Y-138329814D01*
X97030630Y-138233373D01*
X96981969Y-138128503D01*
X96955022Y-138069759D01*
X96906064Y-137962281D01*
X96868178Y-137877502D01*
X96840187Y-137812353D01*
X96820912Y-137763764D01*
X96809178Y-137728667D01*
X96803805Y-137703992D01*
X96803616Y-137686672D01*
X96807434Y-137673636D01*
X96826948Y-137645834D01*
X96862366Y-137618806D01*
X96863372Y-137618350D01*
X96889453Y-137609030D01*
X96912692Y-137608324D01*
X96935208Y-137618940D01*
G36*
X96935208Y-137618940D02*
G01*
X96959119Y-137643585D01*
X96986546Y-137684966D01*
X97019607Y-137745790D01*
X97060420Y-137828763D01*
X97111104Y-137936594D01*
X97130587Y-137978376D01*
X97170193Y-138062496D01*
X97204935Y-138135196D01*
X97232886Y-138192507D01*
X97252120Y-138230455D01*
X97260711Y-138245069D01*
X97262520Y-138244296D01*
X97275823Y-138225727D01*
X97298844Y-138186401D01*
X97328928Y-138130994D01*
X97363422Y-138064180D01*
X97384687Y-138022258D01*
X97423230Y-137948562D01*
X97453170Y-137896617D01*
X97477422Y-137862697D01*
X97498898Y-137843079D01*
X97520512Y-137834040D01*
X97545177Y-137831854D01*
X97559160Y-137832487D01*
X97580616Y-137838088D01*
X97601005Y-137852552D01*
X97623103Y-137879542D01*
X97649689Y-137922725D01*
X97683540Y-137985765D01*
X97727434Y-138072328D01*
X97740392Y-138097963D01*
X97772954Y-138160096D01*
X97799895Y-138208241D01*
X97818710Y-138238049D01*
X97826897Y-138245168D01*
X97828717Y-138240813D01*
X97841198Y-138212975D01*
X97863646Y-138163796D01*
X97894156Y-138097426D01*
X97930823Y-138018014D01*
X97971742Y-137929707D01*
X98007309Y-137853525D01*
X98046749Y-137770995D01*
X98077465Y-137710100D01*
X98101401Y-137667442D01*
X98120502Y-137639625D01*
X98136713Y-137623253D01*
X98151978Y-137614931D01*
X98164506Y-137611080D01*
X98197930Y-137610882D01*
X98234067Y-137631308D01*
X98235798Y-137632620D01*
X98265200Y-137662756D01*
X98279909Y-137692345D01*
X98279971Y-137693197D01*
X98273926Y-137716711D01*
X98256799Y-137762731D01*
X98230493Y-137827096D01*
X98196910Y-137905645D01*
X98157952Y-137994221D01*
X98115522Y-138088661D01*
X98071522Y-138184807D01*
X98027854Y-138278499D01*
X97986420Y-138365576D01*
X97949123Y-138441880D01*
X97917864Y-138503249D01*
X97894546Y-138545525D01*
X97881071Y-138564547D01*
X97835262Y-138582345D01*
X97779748Y-138573876D01*
X97772606Y-138567622D01*
X97751532Y-138538131D01*
X97721973Y-138489190D01*
X97686803Y-138425661D01*
X97648894Y-138352407D01*
X97542686Y-138140397D01*
X97445248Y-138335563D01*
X97432340Y-138361246D01*
X97396421Y-138430940D01*
X97364431Y-138490571D01*
X97339449Y-138534486D01*
X97324556Y-138557032D01*
X97323030Y-138558687D01*
X97285591Y-138579039D01*
X97238911Y-138581280D01*
X97197584Y-138564547D01*
X97194354Y-138560754D01*
X97178031Y-138533294D01*
X97151754Y-138483300D01*
X97117266Y-138414298D01*
X97076310Y-138329814D01*
X97030630Y-138233373D01*
X96981969Y-138128503D01*
X96955022Y-138069759D01*
X96906064Y-137962281D01*
X96868178Y-137877502D01*
X96840187Y-137812353D01*
X96820912Y-137763764D01*
X96809178Y-137728667D01*
X96803805Y-137703992D01*
X96803616Y-137686672D01*
X96807434Y-137673636D01*
X96826948Y-137645834D01*
X96862366Y-137618806D01*
X96863372Y-137618350D01*
X96889453Y-137609030D01*
X96912692Y-137608324D01*
X96935208Y-137618940D01*
G37*
X106988515Y-137607568D02*
X107076713Y-137614797D01*
X107150338Y-137627576D01*
X107218081Y-137647361D01*
X107313024Y-137691472D01*
X107381132Y-137748298D01*
X107422169Y-137817615D01*
X107435901Y-137899199D01*
X107434653Y-137940802D01*
X107426941Y-137973816D01*
X107407227Y-138002666D01*
X107369986Y-138039080D01*
X107359364Y-138048837D01*
X107327798Y-138076666D01*
X107297984Y-138099260D01*
X107265986Y-138117837D01*
X107227872Y-138133615D01*
X107179708Y-138147812D01*
X107117560Y-138161647D01*
X107037494Y-138176338D01*
X106935576Y-138193103D01*
X106807874Y-138213161D01*
X106783425Y-138217200D01*
X106700442Y-138235334D01*
X106640241Y-138256281D01*
X106605247Y-138279009D01*
X106597886Y-138302487D01*
X106601375Y-138308172D01*
X106625250Y-138328229D01*
X106662695Y-138350375D01*
X106679736Y-138358351D01*
X106708092Y-138367927D01*
X106743221Y-138374287D01*
X106790943Y-138378040D01*
X106857076Y-138379794D01*
X106947439Y-138380158D01*
X106971117Y-138380061D01*
X107061145Y-138378582D01*
X107147602Y-138375619D01*
X107221659Y-138371537D01*
X107274489Y-138366698D01*
X107321767Y-138361282D01*
X107360712Y-138360240D01*
X107385876Y-138366363D01*
X107405998Y-138380576D01*
X107410866Y-138385359D01*
X107432623Y-138427662D01*
X107430865Y-138475130D01*
X107405627Y-138515895D01*
X107378506Y-138531346D01*
X107330599Y-138548248D01*
X107274118Y-138561628D01*
X107269524Y-138562425D01*
X107212716Y-138569370D01*
X107136313Y-138575193D01*
X107049752Y-138579304D01*
X106962469Y-138581113D01*
X106940857Y-138581169D01*
X106809968Y-138577870D01*
X106703390Y-138567211D01*
X106616612Y-138547864D01*
X106545124Y-138518502D01*
X106484413Y-138477798D01*
X106429969Y-138424424D01*
X106403181Y-138389507D01*
X106387702Y-138350169D01*
X106383830Y-138297292D01*
X106384017Y-138281357D01*
X106389173Y-138237846D01*
X106405662Y-138202531D01*
X106439165Y-138161460D01*
X106467406Y-138131984D01*
X106502549Y-138101967D01*
X106542113Y-138077513D01*
X106590347Y-138057202D01*
X106651500Y-138039612D01*
X106729819Y-138023323D01*
X106829554Y-138006913D01*
X106954954Y-137988962D01*
X107015280Y-137979630D01*
X107105752Y-137960246D01*
X107171169Y-137938280D01*
X107210534Y-137914451D01*
X107222850Y-137889482D01*
X107207118Y-137864093D01*
X107162342Y-137839005D01*
X107158287Y-137837389D01*
X107096566Y-137821309D01*
X107013156Y-137810391D01*
X106915389Y-137804852D01*
X106810598Y-137804909D01*
X106706115Y-137810778D01*
X106609273Y-137822675D01*
X106604045Y-137823539D01*
X106539053Y-137833800D01*
X106496114Y-137838608D01*
X106468159Y-137837813D01*
X106448117Y-137831261D01*
X106428918Y-137818801D01*
X106427361Y-137817642D01*
X106394720Y-137777204D01*
X106388338Y-137729939D01*
X106409383Y-137683899D01*
X106415435Y-137677966D01*
X106454862Y-137657810D01*
X106517412Y-137640338D01*
X106597698Y-137625959D01*
X106690337Y-137615084D01*
X106789942Y-137608121D01*
X106891130Y-137605479D01*
X106988515Y-137607568D01*
G36*
X106988515Y-137607568D02*
G01*
X107076713Y-137614797D01*
X107150338Y-137627576D01*
X107218081Y-137647361D01*
X107313024Y-137691472D01*
X107381132Y-137748298D01*
X107422169Y-137817615D01*
X107435901Y-137899199D01*
X107434653Y-137940802D01*
X107426941Y-137973816D01*
X107407227Y-138002666D01*
X107369986Y-138039080D01*
X107359364Y-138048837D01*
X107327798Y-138076666D01*
X107297984Y-138099260D01*
X107265986Y-138117837D01*
X107227872Y-138133615D01*
X107179708Y-138147812D01*
X107117560Y-138161647D01*
X107037494Y-138176338D01*
X106935576Y-138193103D01*
X106807874Y-138213161D01*
X106783425Y-138217200D01*
X106700442Y-138235334D01*
X106640241Y-138256281D01*
X106605247Y-138279009D01*
X106597886Y-138302487D01*
X106601375Y-138308172D01*
X106625250Y-138328229D01*
X106662695Y-138350375D01*
X106679736Y-138358351D01*
X106708092Y-138367927D01*
X106743221Y-138374287D01*
X106790943Y-138378040D01*
X106857076Y-138379794D01*
X106947439Y-138380158D01*
X106971117Y-138380061D01*
X107061145Y-138378582D01*
X107147602Y-138375619D01*
X107221659Y-138371537D01*
X107274489Y-138366698D01*
X107321767Y-138361282D01*
X107360712Y-138360240D01*
X107385876Y-138366363D01*
X107405998Y-138380576D01*
X107410866Y-138385359D01*
X107432623Y-138427662D01*
X107430865Y-138475130D01*
X107405627Y-138515895D01*
X107378506Y-138531346D01*
X107330599Y-138548248D01*
X107274118Y-138561628D01*
X107269524Y-138562425D01*
X107212716Y-138569370D01*
X107136313Y-138575193D01*
X107049752Y-138579304D01*
X106962469Y-138581113D01*
X106940857Y-138581169D01*
X106809968Y-138577870D01*
X106703390Y-138567211D01*
X106616612Y-138547864D01*
X106545124Y-138518502D01*
X106484413Y-138477798D01*
X106429969Y-138424424D01*
X106403181Y-138389507D01*
X106387702Y-138350169D01*
X106383830Y-138297292D01*
X106384017Y-138281357D01*
X106389173Y-138237846D01*
X106405662Y-138202531D01*
X106439165Y-138161460D01*
X106467406Y-138131984D01*
X106502549Y-138101967D01*
X106542113Y-138077513D01*
X106590347Y-138057202D01*
X106651500Y-138039612D01*
X106729819Y-138023323D01*
X106829554Y-138006913D01*
X106954954Y-137988962D01*
X107015280Y-137979630D01*
X107105752Y-137960246D01*
X107171169Y-137938280D01*
X107210534Y-137914451D01*
X107222850Y-137889482D01*
X107207118Y-137864093D01*
X107162342Y-137839005D01*
X107158287Y-137837389D01*
X107096566Y-137821309D01*
X107013156Y-137810391D01*
X106915389Y-137804852D01*
X106810598Y-137804909D01*
X106706115Y-137810778D01*
X106609273Y-137822675D01*
X106604045Y-137823539D01*
X106539053Y-137833800D01*
X106496114Y-137838608D01*
X106468159Y-137837813D01*
X106448117Y-137831261D01*
X106428918Y-137818801D01*
X106427361Y-137817642D01*
X106394720Y-137777204D01*
X106388338Y-137729939D01*
X106409383Y-137683899D01*
X106415435Y-137677966D01*
X106454862Y-137657810D01*
X106517412Y-137640338D01*
X106597698Y-137625959D01*
X106690337Y-137615084D01*
X106789942Y-137608121D01*
X106891130Y-137605479D01*
X106988515Y-137607568D01*
G37*
X101823834Y-130566031D02*
X102067638Y-130588413D01*
X102294132Y-130633551D01*
X102511742Y-130703345D01*
X102728891Y-130799696D01*
X102943845Y-130922715D01*
X103174534Y-131090422D01*
X103388459Y-131284323D01*
X103580911Y-131499618D01*
X103747180Y-131731507D01*
X103882553Y-131975190D01*
X103894841Y-132001258D01*
X103997750Y-132252881D01*
X104075946Y-132514345D01*
X104130439Y-132790646D01*
X104162241Y-133086779D01*
X104172360Y-133407739D01*
X104160056Y-133739528D01*
X104121001Y-134066276D01*
X104054590Y-134372149D01*
X103960227Y-134659317D01*
X103837320Y-134929949D01*
X103685273Y-135186214D01*
X103542450Y-135382000D01*
X103345243Y-135602289D01*
X103130296Y-135790974D01*
X102897703Y-135947993D01*
X102647558Y-136073285D01*
X102379957Y-136166786D01*
X102094992Y-136228437D01*
X102091740Y-136228917D01*
X102036862Y-136233732D01*
X101954049Y-136237304D01*
X101850958Y-136239465D01*
X101735246Y-136240050D01*
X101614572Y-136238891D01*
X101529997Y-136237192D01*
X101404512Y-136233258D01*
X101303958Y-136227626D01*
X101221083Y-136219694D01*
X101148634Y-136208863D01*
X101079357Y-136194530D01*
X101001416Y-136176007D01*
X100920099Y-136154914D01*
X100846556Y-136132787D01*
X100774112Y-136107033D01*
X100696093Y-136075060D01*
X100605825Y-136034278D01*
X100496631Y-135982093D01*
X100361839Y-135915915D01*
X99989036Y-135731677D01*
X100287628Y-135241231D01*
X100326719Y-135177041D01*
X100396950Y-135061810D01*
X100459811Y-134958794D01*
X100513004Y-134871748D01*
X100554233Y-134804432D01*
X100581200Y-134760601D01*
X100591607Y-134744015D01*
X100594502Y-134744510D01*
X100617820Y-134760742D01*
X100658786Y-134794429D01*
X100710927Y-134840345D01*
X100803787Y-134919678D01*
X100969562Y-135036990D01*
X101130403Y-135118771D01*
X101246631Y-135159611D01*
X101443222Y-135201348D01*
X101636378Y-135208746D01*
X101823299Y-135182309D01*
X102001183Y-135122540D01*
X102167230Y-135029943D01*
X102318637Y-134905022D01*
X102402886Y-134813014D01*
X102521574Y-134642831D01*
X102618964Y-134445342D01*
X102695519Y-134219536D01*
X102751707Y-133964401D01*
X102754256Y-133948562D01*
X102766033Y-133845903D01*
X102774800Y-133718351D01*
X102780486Y-133574622D01*
X102783021Y-133423431D01*
X102782333Y-133273493D01*
X102778352Y-133133524D01*
X102771006Y-133012241D01*
X102760225Y-132918357D01*
X102718900Y-132705692D01*
X102649365Y-132457270D01*
X102561915Y-132239781D01*
X102456665Y-132053393D01*
X102333732Y-131898273D01*
X102193235Y-131774590D01*
X102035288Y-131682512D01*
X101860010Y-131622209D01*
X101821121Y-131614724D01*
X101723666Y-131604951D01*
X101609773Y-131601761D01*
X101492204Y-131604979D01*
X101383717Y-131614429D01*
X101297072Y-131629936D01*
X101152732Y-131679313D01*
X100985228Y-131769456D01*
X100836080Y-131888084D01*
X100809756Y-131913073D01*
X100762057Y-131957285D01*
X100728345Y-131987042D01*
X100714649Y-131996941D01*
X100711277Y-131992207D01*
X100690523Y-131962313D01*
X100653028Y-131908033D01*
X100601270Y-131832962D01*
X100537728Y-131740694D01*
X100464877Y-131634823D01*
X100385197Y-131518944D01*
X100059286Y-131044817D01*
X100132092Y-131023004D01*
X100139690Y-131020532D01*
X100189145Y-131000898D01*
X100260447Y-130969239D01*
X100345228Y-130929362D01*
X100435120Y-130885076D01*
X100474292Y-130865496D01*
X100691804Y-130764409D01*
X100892283Y-130686238D01*
X101083438Y-130628985D01*
X101272981Y-130590649D01*
X101468622Y-130569231D01*
X101678072Y-130562731D01*
X101823834Y-130566031D01*
G36*
X101823834Y-130566031D02*
G01*
X102067638Y-130588413D01*
X102294132Y-130633551D01*
X102511742Y-130703345D01*
X102728891Y-130799696D01*
X102943845Y-130922715D01*
X103174534Y-131090422D01*
X103388459Y-131284323D01*
X103580911Y-131499618D01*
X103747180Y-131731507D01*
X103882553Y-131975190D01*
X103894841Y-132001258D01*
X103997750Y-132252881D01*
X104075946Y-132514345D01*
X104130439Y-132790646D01*
X104162241Y-133086779D01*
X104172360Y-133407739D01*
X104160056Y-133739528D01*
X104121001Y-134066276D01*
X104054590Y-134372149D01*
X103960227Y-134659317D01*
X103837320Y-134929949D01*
X103685273Y-135186214D01*
X103542450Y-135382000D01*
X103345243Y-135602289D01*
X103130296Y-135790974D01*
X102897703Y-135947993D01*
X102647558Y-136073285D01*
X102379957Y-136166786D01*
X102094992Y-136228437D01*
X102091740Y-136228917D01*
X102036862Y-136233732D01*
X101954049Y-136237304D01*
X101850958Y-136239465D01*
X101735246Y-136240050D01*
X101614572Y-136238891D01*
X101529997Y-136237192D01*
X101404512Y-136233258D01*
X101303958Y-136227626D01*
X101221083Y-136219694D01*
X101148634Y-136208863D01*
X101079357Y-136194530D01*
X101001416Y-136176007D01*
X100920099Y-136154914D01*
X100846556Y-136132787D01*
X100774112Y-136107033D01*
X100696093Y-136075060D01*
X100605825Y-136034278D01*
X100496631Y-135982093D01*
X100361839Y-135915915D01*
X99989036Y-135731677D01*
X100287628Y-135241231D01*
X100326719Y-135177041D01*
X100396950Y-135061810D01*
X100459811Y-134958794D01*
X100513004Y-134871748D01*
X100554233Y-134804432D01*
X100581200Y-134760601D01*
X100591607Y-134744015D01*
X100594502Y-134744510D01*
X100617820Y-134760742D01*
X100658786Y-134794429D01*
X100710927Y-134840345D01*
X100803787Y-134919678D01*
X100969562Y-135036990D01*
X101130403Y-135118771D01*
X101246631Y-135159611D01*
X101443222Y-135201348D01*
X101636378Y-135208746D01*
X101823299Y-135182309D01*
X102001183Y-135122540D01*
X102167230Y-135029943D01*
X102318637Y-134905022D01*
X102402886Y-134813014D01*
X102521574Y-134642831D01*
X102618964Y-134445342D01*
X102695519Y-134219536D01*
X102751707Y-133964401D01*
X102754256Y-133948562D01*
X102766033Y-133845903D01*
X102774800Y-133718351D01*
X102780486Y-133574622D01*
X102783021Y-133423431D01*
X102782333Y-133273493D01*
X102778352Y-133133524D01*
X102771006Y-133012241D01*
X102760225Y-132918357D01*
X102718900Y-132705692D01*
X102649365Y-132457270D01*
X102561915Y-132239781D01*
X102456665Y-132053393D01*
X102333732Y-131898273D01*
X102193235Y-131774590D01*
X102035288Y-131682512D01*
X101860010Y-131622209D01*
X101821121Y-131614724D01*
X101723666Y-131604951D01*
X101609773Y-131601761D01*
X101492204Y-131604979D01*
X101383717Y-131614429D01*
X101297072Y-131629936D01*
X101152732Y-131679313D01*
X100985228Y-131769456D01*
X100836080Y-131888084D01*
X100809756Y-131913073D01*
X100762057Y-131957285D01*
X100728345Y-131987042D01*
X100714649Y-131996941D01*
X100711277Y-131992207D01*
X100690523Y-131962313D01*
X100653028Y-131908033D01*
X100601270Y-131832962D01*
X100537728Y-131740694D01*
X100464877Y-131634823D01*
X100385197Y-131518944D01*
X100059286Y-131044817D01*
X100132092Y-131023004D01*
X100139690Y-131020532D01*
X100189145Y-131000898D01*
X100260447Y-130969239D01*
X100345228Y-130929362D01*
X100435120Y-130885076D01*
X100474292Y-130865496D01*
X100691804Y-130764409D01*
X100892283Y-130686238D01*
X101083438Y-130628985D01*
X101272981Y-130590649D01*
X101468622Y-130569231D01*
X101678072Y-130562731D01*
X101823834Y-130566031D01*
G37*
X95897105Y-134346537D02*
X95893255Y-134514433D01*
X95882247Y-134662502D01*
X95863229Y-134798798D01*
X95835349Y-134931375D01*
X95797754Y-135068286D01*
X95740743Y-135231936D01*
X95636036Y-135452857D01*
X95507598Y-135650734D01*
X95357393Y-135823697D01*
X95187387Y-135969876D01*
X94999545Y-136087401D01*
X94795832Y-136174402D01*
X94578212Y-136229009D01*
X94575593Y-136229447D01*
X94416553Y-136244750D01*
X94241809Y-136242707D01*
X94063820Y-136224579D01*
X93895046Y-136191624D01*
X93747948Y-136145101D01*
X93685161Y-136116791D01*
X93603387Y-136073761D01*
X93519359Y-136024546D01*
X93441845Y-135974563D01*
X93379612Y-135929229D01*
X93341429Y-135893960D01*
X93332663Y-135884277D01*
X93322214Y-135880892D01*
X93315229Y-135897696D01*
X93310082Y-135940045D01*
X93305143Y-136013295D01*
X93296072Y-136165929D01*
X91906360Y-136175433D01*
X91954439Y-136093393D01*
X91957305Y-136088543D01*
X91971285Y-136065772D01*
X91983969Y-136045487D01*
X91995423Y-136025925D01*
X92005715Y-136005324D01*
X92014915Y-135981920D01*
X92023090Y-135953953D01*
X92030309Y-135919660D01*
X92036640Y-135877278D01*
X92042151Y-135825046D01*
X92046910Y-135761200D01*
X92050985Y-135683979D01*
X92054446Y-135591620D01*
X92057359Y-135482361D01*
X92059794Y-135354440D01*
X92061818Y-135206094D01*
X92063501Y-135035562D01*
X92064909Y-134841081D01*
X92066112Y-134620888D01*
X92067177Y-134373221D01*
X92068173Y-134096318D01*
X92069168Y-133788417D01*
X92070231Y-133447756D01*
X92071167Y-133154584D01*
X93386786Y-133154584D01*
X93386786Y-135040556D01*
X93477500Y-135100057D01*
X93512386Y-135121491D01*
X93592265Y-135164311D01*
X93668000Y-135198410D01*
X93701168Y-135209955D01*
X93806705Y-135233004D01*
X93940143Y-135244773D01*
X94007996Y-135247222D01*
X94070980Y-135246666D01*
X94117866Y-135240375D01*
X94159920Y-135226626D01*
X94208409Y-135203692D01*
X94301595Y-135142259D01*
X94382324Y-135055358D01*
X94446945Y-134943369D01*
X94496073Y-134804539D01*
X94530321Y-134637111D01*
X94550306Y-134439329D01*
X94556641Y-134209440D01*
X94556333Y-134157175D01*
X94547225Y-133915015D01*
X94525109Y-133704302D01*
X94489447Y-133522814D01*
X94439701Y-133368327D01*
X94375333Y-133238619D01*
X94295805Y-133131466D01*
X94262812Y-133098763D01*
X94160560Y-133030632D01*
X94040526Y-132989173D01*
X93907910Y-132974622D01*
X93767913Y-132987214D01*
X93625733Y-133027185D01*
X93486572Y-133094771D01*
X93386786Y-133154584D01*
X92071167Y-133154584D01*
X92071429Y-133072572D01*
X92080500Y-130305786D01*
X92801679Y-130301042D01*
X92854124Y-130300723D01*
X93008429Y-130300089D01*
X93149564Y-130299961D01*
X93273677Y-130300311D01*
X93376915Y-130301112D01*
X93455426Y-130302340D01*
X93505357Y-130303967D01*
X93522857Y-130305967D01*
X93520618Y-130312305D01*
X93503917Y-130342356D01*
X93476255Y-130386057D01*
X93473495Y-130390235D01*
X93452048Y-130423977D01*
X93434065Y-130456806D01*
X93419242Y-130492105D01*
X93407274Y-130533255D01*
X93397856Y-130583638D01*
X93390683Y-130646634D01*
X93385450Y-130725627D01*
X93381852Y-130823997D01*
X93379584Y-130945126D01*
X93378342Y-131092396D01*
X93377821Y-131269188D01*
X93377714Y-131478884D01*
X93377905Y-131642603D01*
X93378487Y-131803339D01*
X93379419Y-131949083D01*
X93380659Y-132076286D01*
X93382164Y-132181400D01*
X93383893Y-132260875D01*
X93385802Y-132311163D01*
X93387850Y-132328714D01*
X93394455Y-132325990D01*
X93423490Y-132306807D01*
X93464957Y-132275303D01*
X93525072Y-132232936D01*
X93638021Y-132170511D01*
X93767116Y-132114828D01*
X93900309Y-132071525D01*
X94012215Y-132049444D01*
X94151587Y-132035368D01*
X94302426Y-132030492D01*
X94453093Y-132034820D01*
X94591946Y-132048359D01*
X94707345Y-132071115D01*
X94824847Y-132109447D01*
X95020869Y-132202371D01*
X95202371Y-132325908D01*
X95366004Y-132477212D01*
X95508419Y-132653440D01*
X95626270Y-132851746D01*
X95655528Y-132912556D01*
X95737518Y-133117670D01*
X95801619Y-133340285D01*
X95848642Y-133584325D01*
X95879395Y-133853713D01*
X95894690Y-134152374D01*
X95895400Y-134209440D01*
X95897105Y-134346537D01*
G36*
X95897105Y-134346537D02*
G01*
X95893255Y-134514433D01*
X95882247Y-134662502D01*
X95863229Y-134798798D01*
X95835349Y-134931375D01*
X95797754Y-135068286D01*
X95740743Y-135231936D01*
X95636036Y-135452857D01*
X95507598Y-135650734D01*
X95357393Y-135823697D01*
X95187387Y-135969876D01*
X94999545Y-136087401D01*
X94795832Y-136174402D01*
X94578212Y-136229009D01*
X94575593Y-136229447D01*
X94416553Y-136244750D01*
X94241809Y-136242707D01*
X94063820Y-136224579D01*
X93895046Y-136191624D01*
X93747948Y-136145101D01*
X93685161Y-136116791D01*
X93603387Y-136073761D01*
X93519359Y-136024546D01*
X93441845Y-135974563D01*
X93379612Y-135929229D01*
X93341429Y-135893960D01*
X93332663Y-135884277D01*
X93322214Y-135880892D01*
X93315229Y-135897696D01*
X93310082Y-135940045D01*
X93305143Y-136013295D01*
X93296072Y-136165929D01*
X91906360Y-136175433D01*
X91954439Y-136093393D01*
X91957305Y-136088543D01*
X91971285Y-136065772D01*
X91983969Y-136045487D01*
X91995423Y-136025925D01*
X92005715Y-136005324D01*
X92014915Y-135981920D01*
X92023090Y-135953953D01*
X92030309Y-135919660D01*
X92036640Y-135877278D01*
X92042151Y-135825046D01*
X92046910Y-135761200D01*
X92050985Y-135683979D01*
X92054446Y-135591620D01*
X92057359Y-135482361D01*
X92059794Y-135354440D01*
X92061818Y-135206094D01*
X92063501Y-135035562D01*
X92064909Y-134841081D01*
X92066112Y-134620888D01*
X92067177Y-134373221D01*
X92068173Y-134096318D01*
X92069168Y-133788417D01*
X92070231Y-133447756D01*
X92071167Y-133154584D01*
X93386786Y-133154584D01*
X93386786Y-135040556D01*
X93477500Y-135100057D01*
X93512386Y-135121491D01*
X93592265Y-135164311D01*
X93668000Y-135198410D01*
X93701168Y-135209955D01*
X93806705Y-135233004D01*
X93940143Y-135244773D01*
X94007996Y-135247222D01*
X94070980Y-135246666D01*
X94117866Y-135240375D01*
X94159920Y-135226626D01*
X94208409Y-135203692D01*
X94301595Y-135142259D01*
X94382324Y-135055358D01*
X94446945Y-134943369D01*
X94496073Y-134804539D01*
X94530321Y-134637111D01*
X94550306Y-134439329D01*
X94556641Y-134209440D01*
X94556333Y-134157175D01*
X94547225Y-133915015D01*
X94525109Y-133704302D01*
X94489447Y-133522814D01*
X94439701Y-133368327D01*
X94375333Y-133238619D01*
X94295805Y-133131466D01*
X94262812Y-133098763D01*
X94160560Y-133030632D01*
X94040526Y-132989173D01*
X93907910Y-132974622D01*
X93767913Y-132987214D01*
X93625733Y-133027185D01*
X93486572Y-133094771D01*
X93386786Y-133154584D01*
X92071167Y-133154584D01*
X92071429Y-133072572D01*
X92080500Y-130305786D01*
X92801679Y-130301042D01*
X92854124Y-130300723D01*
X93008429Y-130300089D01*
X93149564Y-130299961D01*
X93273677Y-130300311D01*
X93376915Y-130301112D01*
X93455426Y-130302340D01*
X93505357Y-130303967D01*
X93522857Y-130305967D01*
X93520618Y-130312305D01*
X93503917Y-130342356D01*
X93476255Y-130386057D01*
X93473495Y-130390235D01*
X93452048Y-130423977D01*
X93434065Y-130456806D01*
X93419242Y-130492105D01*
X93407274Y-130533255D01*
X93397856Y-130583638D01*
X93390683Y-130646634D01*
X93385450Y-130725627D01*
X93381852Y-130823997D01*
X93379584Y-130945126D01*
X93378342Y-131092396D01*
X93377821Y-131269188D01*
X93377714Y-131478884D01*
X93377905Y-131642603D01*
X93378487Y-131803339D01*
X93379419Y-131949083D01*
X93380659Y-132076286D01*
X93382164Y-132181400D01*
X93383893Y-132260875D01*
X93385802Y-132311163D01*
X93387850Y-132328714D01*
X93394455Y-132325990D01*
X93423490Y-132306807D01*
X93464957Y-132275303D01*
X93525072Y-132232936D01*
X93638021Y-132170511D01*
X93767116Y-132114828D01*
X93900309Y-132071525D01*
X94012215Y-132049444D01*
X94151587Y-132035368D01*
X94302426Y-132030492D01*
X94453093Y-132034820D01*
X94591946Y-132048359D01*
X94707345Y-132071115D01*
X94824847Y-132109447D01*
X95020869Y-132202371D01*
X95202371Y-132325908D01*
X95366004Y-132477212D01*
X95508419Y-132653440D01*
X95626270Y-132851746D01*
X95655528Y-132912556D01*
X95737518Y-133117670D01*
X95801619Y-133340285D01*
X95848642Y-133584325D01*
X95879395Y-133853713D01*
X95894690Y-134152374D01*
X95895400Y-134209440D01*
X95897105Y-134346537D01*
G37*
X99997990Y-134917437D02*
X99989842Y-135063722D01*
X99972232Y-135199833D01*
X99945659Y-135313214D01*
X99903259Y-135429867D01*
X99804976Y-135622110D01*
X99679350Y-135791247D01*
X99527681Y-135936126D01*
X99351271Y-136055594D01*
X99151420Y-136148499D01*
X98929429Y-136213689D01*
X98838907Y-136228392D01*
X98709552Y-136238611D01*
X98568675Y-136240909D01*
X98428050Y-136235472D01*
X98299449Y-136222485D01*
X98194643Y-136202133D01*
X98141979Y-136186109D01*
X98022369Y-136139219D01*
X97900783Y-136079688D01*
X97789765Y-136013971D01*
X97701859Y-135948524D01*
X97700778Y-135947579D01*
X97652607Y-135906736D01*
X97615545Y-135877653D01*
X97597537Y-135866572D01*
X97595568Y-135869217D01*
X97591113Y-135897794D01*
X97588018Y-135951094D01*
X97586857Y-136020786D01*
X97586857Y-136175000D01*
X96906500Y-136175000D01*
X96888389Y-136174997D01*
X96736490Y-136174731D01*
X96597078Y-136174070D01*
X96474118Y-136173062D01*
X96371579Y-136171758D01*
X96293426Y-136170205D01*
X96243625Y-136168454D01*
X96226143Y-136166553D01*
X96226550Y-136164893D01*
X96237988Y-136140377D01*
X96261962Y-136094317D01*
X96294179Y-136035018D01*
X96362215Y-135911929D01*
X96372190Y-134696689D01*
X97659429Y-134696689D01*
X97659935Y-134792703D01*
X97662387Y-134893587D01*
X97667190Y-134966507D01*
X97674695Y-135016212D01*
X97685250Y-135047449D01*
X97698828Y-135069755D01*
X97749962Y-135130561D01*
X97818475Y-135193863D01*
X97893568Y-135250265D01*
X97964440Y-135290370D01*
X98003761Y-135305085D01*
X98094302Y-135324677D01*
X98212555Y-135334694D01*
X98337232Y-135333177D01*
X98455627Y-135312574D01*
X98554449Y-135270011D01*
X98639948Y-135203571D01*
X98664000Y-135178995D01*
X98726622Y-135095185D01*
X98760504Y-135004850D01*
X98770679Y-134896151D01*
X98767922Y-134838725D01*
X98740661Y-134720507D01*
X98683390Y-134619039D01*
X98595068Y-134533179D01*
X98474651Y-134461784D01*
X98321097Y-134403714D01*
X98259193Y-134388475D01*
X98184251Y-134378041D01*
X98089937Y-134372246D01*
X97967857Y-134370298D01*
X97948026Y-134370299D01*
X97856696Y-134371414D01*
X97778244Y-134374108D01*
X97720471Y-134378029D01*
X97691179Y-134382824D01*
X97687808Y-134384380D01*
X97676910Y-134394154D01*
X97669192Y-134413794D01*
X97664119Y-134448585D01*
X97661157Y-134503809D01*
X97659772Y-134584750D01*
X97659429Y-134696689D01*
X96372190Y-134696689D01*
X96372714Y-134632857D01*
X96374275Y-134446561D01*
X96376458Y-134208965D01*
X96378750Y-134002698D01*
X96381335Y-133824842D01*
X96384400Y-133672481D01*
X96388128Y-133542696D01*
X96392705Y-133432572D01*
X96398316Y-133339190D01*
X96405147Y-133259635D01*
X96413383Y-133190988D01*
X96423208Y-133130333D01*
X96434808Y-133074752D01*
X96448368Y-133021329D01*
X96464073Y-132967146D01*
X96482109Y-132909286D01*
X96553161Y-132727898D01*
X96650464Y-132560258D01*
X96771641Y-132416732D01*
X96917803Y-132296570D01*
X97090057Y-132199020D01*
X97289515Y-132123331D01*
X97517285Y-132068753D01*
X97774477Y-132034535D01*
X97864368Y-132027730D01*
X98015760Y-132022755D01*
X98165814Y-132027235D01*
X98321554Y-132041927D01*
X98490005Y-132067584D01*
X98678193Y-132104962D01*
X98893143Y-132154818D01*
X98942828Y-132166881D01*
X99067601Y-132196565D01*
X99185861Y-132223898D01*
X99290436Y-132247263D01*
X99374154Y-132265047D01*
X99429845Y-132275636D01*
X99558333Y-132296740D01*
X99377695Y-132734549D01*
X99332512Y-132843859D01*
X99288061Y-132950969D01*
X99249923Y-133042418D01*
X99219969Y-133113733D01*
X99200071Y-133160437D01*
X99192103Y-133178058D01*
X99190850Y-133178310D01*
X99167758Y-133170443D01*
X99122353Y-133150283D01*
X99062824Y-133121417D01*
X98939096Y-133065203D01*
X98768837Y-133003740D01*
X98594578Y-132956670D01*
X98423133Y-132925177D01*
X98261317Y-132910443D01*
X98115944Y-132913650D01*
X97993829Y-132935979D01*
X97908601Y-132971409D01*
X97811809Y-133044017D01*
X97737297Y-133142518D01*
X97687199Y-133263883D01*
X97663649Y-133405080D01*
X97655355Y-133535215D01*
X98088285Y-133536400D01*
X98234285Y-133537624D01*
X98395771Y-133541972D01*
X98533725Y-133550178D01*
X98655281Y-133563039D01*
X98767577Y-133581354D01*
X98877747Y-133605919D01*
X98992929Y-133637533D01*
X99165268Y-133697709D01*
X99367975Y-133796806D01*
X99545876Y-133918190D01*
X99697217Y-134060155D01*
X99820243Y-134220993D01*
X99913199Y-134398997D01*
X99974330Y-134592460D01*
X99983904Y-134644565D01*
X99996177Y-134773533D01*
X99997722Y-134896151D01*
X99997990Y-134917437D01*
G36*
X99997990Y-134917437D02*
G01*
X99989842Y-135063722D01*
X99972232Y-135199833D01*
X99945659Y-135313214D01*
X99903259Y-135429867D01*
X99804976Y-135622110D01*
X99679350Y-135791247D01*
X99527681Y-135936126D01*
X99351271Y-136055594D01*
X99151420Y-136148499D01*
X98929429Y-136213689D01*
X98838907Y-136228392D01*
X98709552Y-136238611D01*
X98568675Y-136240909D01*
X98428050Y-136235472D01*
X98299449Y-136222485D01*
X98194643Y-136202133D01*
X98141979Y-136186109D01*
X98022369Y-136139219D01*
X97900783Y-136079688D01*
X97789765Y-136013971D01*
X97701859Y-135948524D01*
X97700778Y-135947579D01*
X97652607Y-135906736D01*
X97615545Y-135877653D01*
X97597537Y-135866572D01*
X97595568Y-135869217D01*
X97591113Y-135897794D01*
X97588018Y-135951094D01*
X97586857Y-136020786D01*
X97586857Y-136175000D01*
X96906500Y-136175000D01*
X96888389Y-136174997D01*
X96736490Y-136174731D01*
X96597078Y-136174070D01*
X96474118Y-136173062D01*
X96371579Y-136171758D01*
X96293426Y-136170205D01*
X96243625Y-136168454D01*
X96226143Y-136166553D01*
X96226550Y-136164893D01*
X96237988Y-136140377D01*
X96261962Y-136094317D01*
X96294179Y-136035018D01*
X96362215Y-135911929D01*
X96372190Y-134696689D01*
X97659429Y-134696689D01*
X97659935Y-134792703D01*
X97662387Y-134893587D01*
X97667190Y-134966507D01*
X97674695Y-135016212D01*
X97685250Y-135047449D01*
X97698828Y-135069755D01*
X97749962Y-135130561D01*
X97818475Y-135193863D01*
X97893568Y-135250265D01*
X97964440Y-135290370D01*
X98003761Y-135305085D01*
X98094302Y-135324677D01*
X98212555Y-135334694D01*
X98337232Y-135333177D01*
X98455627Y-135312574D01*
X98554449Y-135270011D01*
X98639948Y-135203571D01*
X98664000Y-135178995D01*
X98726622Y-135095185D01*
X98760504Y-135004850D01*
X98770679Y-134896151D01*
X98767922Y-134838725D01*
X98740661Y-134720507D01*
X98683390Y-134619039D01*
X98595068Y-134533179D01*
X98474651Y-134461784D01*
X98321097Y-134403714D01*
X98259193Y-134388475D01*
X98184251Y-134378041D01*
X98089937Y-134372246D01*
X97967857Y-134370298D01*
X97948026Y-134370299D01*
X97856696Y-134371414D01*
X97778244Y-134374108D01*
X97720471Y-134378029D01*
X97691179Y-134382824D01*
X97687808Y-134384380D01*
X97676910Y-134394154D01*
X97669192Y-134413794D01*
X97664119Y-134448585D01*
X97661157Y-134503809D01*
X97659772Y-134584750D01*
X97659429Y-134696689D01*
X96372190Y-134696689D01*
X96372714Y-134632857D01*
X96374275Y-134446561D01*
X96376458Y-134208965D01*
X96378750Y-134002698D01*
X96381335Y-133824842D01*
X96384400Y-133672481D01*
X96388128Y-133542696D01*
X96392705Y-133432572D01*
X96398316Y-133339190D01*
X96405147Y-133259635D01*
X96413383Y-133190988D01*
X96423208Y-133130333D01*
X96434808Y-133074752D01*
X96448368Y-133021329D01*
X96464073Y-132967146D01*
X96482109Y-132909286D01*
X96553161Y-132727898D01*
X96650464Y-132560258D01*
X96771641Y-132416732D01*
X96917803Y-132296570D01*
X97090057Y-132199020D01*
X97289515Y-132123331D01*
X97517285Y-132068753D01*
X97774477Y-132034535D01*
X97864368Y-132027730D01*
X98015760Y-132022755D01*
X98165814Y-132027235D01*
X98321554Y-132041927D01*
X98490005Y-132067584D01*
X98678193Y-132104962D01*
X98893143Y-132154818D01*
X98942828Y-132166881D01*
X99067601Y-132196565D01*
X99185861Y-132223898D01*
X99290436Y-132247263D01*
X99374154Y-132265047D01*
X99429845Y-132275636D01*
X99558333Y-132296740D01*
X99377695Y-132734549D01*
X99332512Y-132843859D01*
X99288061Y-132950969D01*
X99249923Y-133042418D01*
X99219969Y-133113733D01*
X99200071Y-133160437D01*
X99192103Y-133178058D01*
X99190850Y-133178310D01*
X99167758Y-133170443D01*
X99122353Y-133150283D01*
X99062824Y-133121417D01*
X98939096Y-133065203D01*
X98768837Y-133003740D01*
X98594578Y-132956670D01*
X98423133Y-132925177D01*
X98261317Y-132910443D01*
X98115944Y-132913650D01*
X97993829Y-132935979D01*
X97908601Y-132971409D01*
X97811809Y-133044017D01*
X97737297Y-133142518D01*
X97687199Y-133263883D01*
X97663649Y-133405080D01*
X97655355Y-133535215D01*
X98088285Y-133536400D01*
X98234285Y-133537624D01*
X98395771Y-133541972D01*
X98533725Y-133550178D01*
X98655281Y-133563039D01*
X98767577Y-133581354D01*
X98877747Y-133605919D01*
X98992929Y-133637533D01*
X99165268Y-133697709D01*
X99367975Y-133796806D01*
X99545876Y-133918190D01*
X99697217Y-134060155D01*
X99820243Y-134220993D01*
X99913199Y-134398997D01*
X99974330Y-134592460D01*
X99983904Y-134644565D01*
X99996177Y-134773533D01*
X99997722Y-134896151D01*
X99997990Y-134917437D01*
G37*
X112169428Y-136210860D02*
X112167560Y-136351553D01*
X112165241Y-136472746D01*
X112162425Y-136575940D01*
X112159064Y-136662635D01*
X112155110Y-136734332D01*
X112150517Y-136792530D01*
X112145238Y-136838730D01*
X112139225Y-136874433D01*
X112132430Y-136901137D01*
X112124808Y-136920345D01*
X112116309Y-136933555D01*
X112106889Y-136942268D01*
X112096498Y-136947985D01*
X112085090Y-136952206D01*
X112072618Y-136956430D01*
X112059034Y-136962159D01*
X112051391Y-136965030D01*
X112037371Y-136968165D01*
X112016538Y-136971037D01*
X111987421Y-136973659D01*
X111948544Y-136976040D01*
X111898434Y-136978194D01*
X111835617Y-136980130D01*
X111758620Y-136981862D01*
X111665969Y-136983400D01*
X111556190Y-136984756D01*
X111427810Y-136985941D01*
X111279354Y-136986968D01*
X111109350Y-136987846D01*
X110916323Y-136988589D01*
X110698800Y-136989207D01*
X110455308Y-136989713D01*
X110184371Y-136990116D01*
X109884517Y-136990430D01*
X109554273Y-136990665D01*
X109192164Y-136990834D01*
X108796716Y-136990947D01*
X108366456Y-136991016D01*
X108230108Y-136991029D01*
X107809186Y-136991038D01*
X107422647Y-136990985D01*
X107069034Y-136990860D01*
X106746890Y-136990652D01*
X106454761Y-136990351D01*
X106191188Y-136989946D01*
X105954716Y-136989426D01*
X105743890Y-136988782D01*
X105557251Y-136988002D01*
X105393345Y-136987076D01*
X105250715Y-136985993D01*
X105127905Y-136984743D01*
X105023458Y-136983315D01*
X104935919Y-136981698D01*
X104863830Y-136979883D01*
X104805736Y-136977858D01*
X104760180Y-136975613D01*
X104725707Y-136973137D01*
X104700859Y-136970420D01*
X104684181Y-136967451D01*
X104674217Y-136964220D01*
X104671046Y-136962782D01*
X104658067Y-136958058D01*
X104646165Y-136954608D01*
X104635292Y-136950930D01*
X104625398Y-136945521D01*
X104616437Y-136936879D01*
X104608359Y-136923502D01*
X104601116Y-136903886D01*
X104594661Y-136876531D01*
X104588945Y-136839933D01*
X104583919Y-136792590D01*
X104579536Y-136733000D01*
X104575747Y-136659659D01*
X104572504Y-136571067D01*
X104569759Y-136465720D01*
X104567463Y-136342117D01*
X104565568Y-136198754D01*
X104564946Y-136132367D01*
X105043373Y-136132367D01*
X105043898Y-136138725D01*
X105053521Y-136143877D01*
X105075264Y-136147950D01*
X105112148Y-136151070D01*
X105167193Y-136153365D01*
X105243419Y-136154959D01*
X105343848Y-136155979D01*
X105471501Y-136156551D01*
X105629398Y-136156802D01*
X105820559Y-136156857D01*
X106621314Y-136156857D01*
X106553621Y-136034393D01*
X106485929Y-135911929D01*
X106485929Y-132355929D01*
X106553621Y-132233465D01*
X106621314Y-132111000D01*
X105189993Y-132111000D01*
X105184818Y-133993322D01*
X105179643Y-135875643D01*
X105128903Y-135984008D01*
X105102151Y-136037719D01*
X105071860Y-136091524D01*
X105048984Y-136124615D01*
X105048926Y-136124679D01*
X105043373Y-136132367D01*
X104564946Y-136132367D01*
X104564026Y-136034129D01*
X104562789Y-135846740D01*
X104561808Y-135635085D01*
X104561035Y-135397661D01*
X104560422Y-135132966D01*
X104559921Y-134839498D01*
X104559484Y-134515753D01*
X104559061Y-134160230D01*
X104558605Y-133771426D01*
X104558068Y-133347840D01*
X104557999Y-133296560D01*
X104557400Y-132875657D01*
X104556827Y-132489362D01*
X104556323Y-132136172D01*
X104555930Y-131814584D01*
X104555690Y-131523094D01*
X104555646Y-131260200D01*
X104555840Y-131024398D01*
X104556314Y-130814186D01*
X104557112Y-130628060D01*
X104558274Y-130464517D01*
X104559844Y-130322055D01*
X104561864Y-130199170D01*
X104564377Y-130094359D01*
X104567424Y-130006119D01*
X104571049Y-129932947D01*
X104575293Y-129873340D01*
X104580198Y-129825795D01*
X104585808Y-129788808D01*
X104592165Y-129760878D01*
X104599311Y-129740500D01*
X104607288Y-129726171D01*
X104616139Y-129716390D01*
X104625906Y-129709651D01*
X104636632Y-129704454D01*
X104648358Y-129699293D01*
X104661128Y-129692667D01*
X104664865Y-129690556D01*
X104721405Y-129670118D01*
X104783300Y-129661717D01*
X104853072Y-129661720D01*
X104854234Y-129820467D01*
X104854529Y-129838735D01*
X104876706Y-130024427D01*
X104933188Y-130199147D01*
X105023192Y-130361043D01*
X105145932Y-130508265D01*
X105211798Y-130568311D01*
X105358454Y-130667838D01*
X105518470Y-130737242D01*
X105687185Y-130776487D01*
X105859939Y-130785537D01*
X106032072Y-130764353D01*
X106198922Y-130712899D01*
X106336080Y-130641429D01*
X106943127Y-130641429D01*
X107022957Y-130698862D01*
X107090470Y-130752841D01*
X107185603Y-130840886D01*
X107293507Y-130951230D01*
X107410097Y-131079670D01*
X107531285Y-131222000D01*
X107562494Y-131260062D01*
X107615629Y-131325343D01*
X107685083Y-131410988D01*
X107768556Y-131514140D01*
X107863746Y-131631939D01*
X107968354Y-131761528D01*
X108080077Y-131900047D01*
X108196615Y-132044639D01*
X108250067Y-132111000D01*
X108315667Y-132192444D01*
X108434932Y-132340603D01*
X108552109Y-132486260D01*
X108664896Y-132626554D01*
X108770994Y-132758627D01*
X108868101Y-132879621D01*
X108953916Y-132986678D01*
X109026138Y-133076938D01*
X109082466Y-133147543D01*
X109120599Y-133195635D01*
X109138237Y-133218355D01*
X109139692Y-133226893D01*
X109134850Y-133243132D01*
X109122302Y-133268679D01*
X109100797Y-133305347D01*
X109069080Y-133354949D01*
X109025900Y-133419295D01*
X108970005Y-133500198D01*
X108900141Y-133599471D01*
X108815057Y-133718926D01*
X108713499Y-133860374D01*
X108594216Y-134025629D01*
X108455954Y-134216501D01*
X108297462Y-134434804D01*
X108171177Y-134608571D01*
X108017105Y-134820407D01*
X107881580Y-135006440D01*
X107763024Y-135168734D01*
X107659861Y-135309354D01*
X107570515Y-135430365D01*
X107493411Y-135533832D01*
X107426972Y-135621818D01*
X107369623Y-135696390D01*
X107319786Y-135759610D01*
X107275886Y-135813545D01*
X107236347Y-135860258D01*
X107199593Y-135901814D01*
X107164047Y-135940279D01*
X107128135Y-135977715D01*
X107090278Y-136016189D01*
X106950771Y-136156857D01*
X108826357Y-136156933D01*
X108820464Y-136043275D01*
X108820179Y-136037564D01*
X108819060Y-135992127D01*
X108821181Y-135948593D01*
X108827958Y-135904576D01*
X108840812Y-135857693D01*
X108861160Y-135805558D01*
X108890420Y-135745786D01*
X108930012Y-135675994D01*
X108981353Y-135593797D01*
X109045862Y-135496809D01*
X109124957Y-135382647D01*
X109220057Y-135248925D01*
X109332581Y-135093260D01*
X109463946Y-134913265D01*
X109615572Y-134706557D01*
X110150786Y-133977911D01*
X110155501Y-134822755D01*
X110155919Y-134901562D01*
X110156656Y-135113832D01*
X110156321Y-135294381D01*
X110154519Y-135446628D01*
X110150856Y-135573988D01*
X110144936Y-135679878D01*
X110136367Y-135767715D01*
X110124751Y-135840916D01*
X110109697Y-135902898D01*
X110090807Y-135957076D01*
X110067689Y-136006869D01*
X110039947Y-136055693D01*
X110007187Y-136106964D01*
X109974256Y-136156857D01*
X111685704Y-136156857D01*
X111641496Y-136097893D01*
X111634572Y-136088565D01*
X111579221Y-136003070D01*
X111541064Y-135916644D01*
X111516008Y-135817613D01*
X111499959Y-135694304D01*
X111499518Y-135688929D01*
X111497189Y-135638067D01*
X111495087Y-135553206D01*
X111493219Y-135436286D01*
X111491596Y-135289246D01*
X111490227Y-135114026D01*
X111489120Y-134912563D01*
X111488285Y-134686798D01*
X111487732Y-134438669D01*
X111487468Y-134170115D01*
X111487503Y-133883077D01*
X111487847Y-133579492D01*
X111488508Y-133261300D01*
X111489209Y-132975881D01*
X111489958Y-132665196D01*
X111490696Y-132387226D01*
X111491515Y-132140022D01*
X111492507Y-131921637D01*
X111493766Y-131730125D01*
X111495383Y-131563537D01*
X111497452Y-131419925D01*
X111500065Y-131297344D01*
X111503315Y-131193844D01*
X111507293Y-131107479D01*
X111512094Y-131036301D01*
X111517809Y-130978363D01*
X111524532Y-130931717D01*
X111532354Y-130894416D01*
X111541368Y-130864512D01*
X111551667Y-130840058D01*
X111563344Y-130819106D01*
X111576492Y-130799709D01*
X111591202Y-130779920D01*
X111607567Y-130757791D01*
X111623396Y-130735615D01*
X111653991Y-130691769D01*
X111672317Y-130664107D01*
X111672759Y-130662949D01*
X111666360Y-130657718D01*
X111643779Y-130653353D01*
X111602502Y-130649788D01*
X111540017Y-130646954D01*
X111453812Y-130644787D01*
X111341373Y-130643217D01*
X111200188Y-130642179D01*
X111027745Y-130641605D01*
X110821530Y-130641429D01*
X109957060Y-130641429D01*
X110002621Y-130695574D01*
X110029026Y-130732763D01*
X110072978Y-130820446D01*
X110111495Y-130929499D01*
X110140893Y-131050468D01*
X110142766Y-131061952D01*
X110148341Y-131122492D01*
X110152563Y-131216056D01*
X110155443Y-131343292D01*
X110156992Y-131504846D01*
X110157221Y-131701368D01*
X110156143Y-131933504D01*
X110150786Y-132708508D01*
X109597429Y-132008742D01*
X109581579Y-131988698D01*
X109441253Y-131811052D01*
X109321453Y-131658914D01*
X109220270Y-131529698D01*
X109135800Y-131420817D01*
X109066135Y-131329685D01*
X109009368Y-131253714D01*
X108963594Y-131190317D01*
X108926906Y-131136908D01*
X108897396Y-131090901D01*
X108873159Y-131049707D01*
X108852288Y-131010741D01*
X108832877Y-130971415D01*
X108803015Y-130901805D01*
X108783724Y-130828372D01*
X108778592Y-130749165D01*
X108779108Y-130641429D01*
X106943127Y-130641429D01*
X106336080Y-130641429D01*
X106355830Y-130631138D01*
X106498136Y-130519032D01*
X106537695Y-130479510D01*
X106654620Y-130333175D01*
X106737588Y-130174367D01*
X106787043Y-130002063D01*
X106803429Y-129815238D01*
X106803429Y-129661715D01*
X109407830Y-129661714D01*
X109570540Y-129661707D01*
X109920089Y-129661660D01*
X110235856Y-129661626D01*
X110519588Y-129661673D01*
X110773031Y-129661872D01*
X110997931Y-129662291D01*
X111196034Y-129662998D01*
X111369087Y-129664065D01*
X111518835Y-129665558D01*
X111647025Y-129667547D01*
X111755403Y-129670102D01*
X111845715Y-129673291D01*
X111919707Y-129677183D01*
X111979125Y-129681848D01*
X112025716Y-129687354D01*
X112061226Y-129693771D01*
X112087400Y-129701167D01*
X112105986Y-129709611D01*
X112118728Y-129719173D01*
X112127374Y-129729922D01*
X112133670Y-129741926D01*
X112139360Y-129755255D01*
X112146193Y-129769978D01*
X112146316Y-129770218D01*
X112149633Y-129779856D01*
X112152676Y-129795993D01*
X112155456Y-129820121D01*
X112157985Y-129853727D01*
X112160274Y-129898301D01*
X112162334Y-129955333D01*
X112164179Y-130026311D01*
X112165817Y-130112725D01*
X112167263Y-130216064D01*
X112168526Y-130337818D01*
X112169619Y-130479475D01*
X112170553Y-130642526D01*
X112171340Y-130828458D01*
X112171991Y-131038762D01*
X112172517Y-131274927D01*
X112172931Y-131538442D01*
X112173244Y-131830797D01*
X112173467Y-132153480D01*
X112173612Y-132507981D01*
X112173691Y-132895789D01*
X112173714Y-133318393D01*
X112173715Y-133401414D01*
X112173755Y-133819614D01*
X112173817Y-134203313D01*
X112173854Y-134554009D01*
X112173817Y-134873204D01*
X112173662Y-135162398D01*
X112173339Y-135423091D01*
X112172801Y-135656784D01*
X112172001Y-135864976D01*
X112170892Y-136049168D01*
X112169916Y-136156857D01*
X112169428Y-136210860D01*
G36*
X112169428Y-136210860D02*
G01*
X112167560Y-136351553D01*
X112165241Y-136472746D01*
X112162425Y-136575940D01*
X112159064Y-136662635D01*
X112155110Y-136734332D01*
X112150517Y-136792530D01*
X112145238Y-136838730D01*
X112139225Y-136874433D01*
X112132430Y-136901137D01*
X112124808Y-136920345D01*
X112116309Y-136933555D01*
X112106889Y-136942268D01*
X112096498Y-136947985D01*
X112085090Y-136952206D01*
X112072618Y-136956430D01*
X112059034Y-136962159D01*
X112051391Y-136965030D01*
X112037371Y-136968165D01*
X112016538Y-136971037D01*
X111987421Y-136973659D01*
X111948544Y-136976040D01*
X111898434Y-136978194D01*
X111835617Y-136980130D01*
X111758620Y-136981862D01*
X111665969Y-136983400D01*
X111556190Y-136984756D01*
X111427810Y-136985941D01*
X111279354Y-136986968D01*
X111109350Y-136987846D01*
X110916323Y-136988589D01*
X110698800Y-136989207D01*
X110455308Y-136989713D01*
X110184371Y-136990116D01*
X109884517Y-136990430D01*
X109554273Y-136990665D01*
X109192164Y-136990834D01*
X108796716Y-136990947D01*
X108366456Y-136991016D01*
X108230108Y-136991029D01*
X107809186Y-136991038D01*
X107422647Y-136990985D01*
X107069034Y-136990860D01*
X106746890Y-136990652D01*
X106454761Y-136990351D01*
X106191188Y-136989946D01*
X105954716Y-136989426D01*
X105743890Y-136988782D01*
X105557251Y-136988002D01*
X105393345Y-136987076D01*
X105250715Y-136985993D01*
X105127905Y-136984743D01*
X105023458Y-136983315D01*
X104935919Y-136981698D01*
X104863830Y-136979883D01*
X104805736Y-136977858D01*
X104760180Y-136975613D01*
X104725707Y-136973137D01*
X104700859Y-136970420D01*
X104684181Y-136967451D01*
X104674217Y-136964220D01*
X104671046Y-136962782D01*
X104658067Y-136958058D01*
X104646165Y-136954608D01*
X104635292Y-136950930D01*
X104625398Y-136945521D01*
X104616437Y-136936879D01*
X104608359Y-136923502D01*
X104601116Y-136903886D01*
X104594661Y-136876531D01*
X104588945Y-136839933D01*
X104583919Y-136792590D01*
X104579536Y-136733000D01*
X104575747Y-136659659D01*
X104572504Y-136571067D01*
X104569759Y-136465720D01*
X104567463Y-136342117D01*
X104565568Y-136198754D01*
X104564946Y-136132367D01*
X105043373Y-136132367D01*
X105043898Y-136138725D01*
X105053521Y-136143877D01*
X105075264Y-136147950D01*
X105112148Y-136151070D01*
X105167193Y-136153365D01*
X105243419Y-136154959D01*
X105343848Y-136155979D01*
X105471501Y-136156551D01*
X105629398Y-136156802D01*
X105820559Y-136156857D01*
X106621314Y-136156857D01*
X106553621Y-136034393D01*
X106485929Y-135911929D01*
X106485929Y-132355929D01*
X106553621Y-132233465D01*
X106621314Y-132111000D01*
X105189993Y-132111000D01*
X105184818Y-133993322D01*
X105179643Y-135875643D01*
X105128903Y-135984008D01*
X105102151Y-136037719D01*
X105071860Y-136091524D01*
X105048984Y-136124615D01*
X105048926Y-136124679D01*
X105043373Y-136132367D01*
X104564946Y-136132367D01*
X104564026Y-136034129D01*
X104562789Y-135846740D01*
X104561808Y-135635085D01*
X104561035Y-135397661D01*
X104560422Y-135132966D01*
X104559921Y-134839498D01*
X104559484Y-134515753D01*
X104559061Y-134160230D01*
X104558605Y-133771426D01*
X104558068Y-133347840D01*
X104557999Y-133296560D01*
X104557400Y-132875657D01*
X104556827Y-132489362D01*
X104556323Y-132136172D01*
X104555930Y-131814584D01*
X104555690Y-131523094D01*
X104555646Y-131260200D01*
X104555840Y-131024398D01*
X104556314Y-130814186D01*
X104557112Y-130628060D01*
X104558274Y-130464517D01*
X104559844Y-130322055D01*
X104561864Y-130199170D01*
X104564377Y-130094359D01*
X104567424Y-130006119D01*
X104571049Y-129932947D01*
X104575293Y-129873340D01*
X104580198Y-129825795D01*
X104585808Y-129788808D01*
X104592165Y-129760878D01*
X104599311Y-129740500D01*
X104607288Y-129726171D01*
X104616139Y-129716390D01*
X104625906Y-129709651D01*
X104636632Y-129704454D01*
X104648358Y-129699293D01*
X104661128Y-129692667D01*
X104664865Y-129690556D01*
X104721405Y-129670118D01*
X104783300Y-129661717D01*
X104853072Y-129661720D01*
X104854234Y-129820467D01*
X104854529Y-129838735D01*
X104876706Y-130024427D01*
X104933188Y-130199147D01*
X105023192Y-130361043D01*
X105145932Y-130508265D01*
X105211798Y-130568311D01*
X105358454Y-130667838D01*
X105518470Y-130737242D01*
X105687185Y-130776487D01*
X105859939Y-130785537D01*
X106032072Y-130764353D01*
X106198922Y-130712899D01*
X106336080Y-130641429D01*
X106943127Y-130641429D01*
X107022957Y-130698862D01*
X107090470Y-130752841D01*
X107185603Y-130840886D01*
X107293507Y-130951230D01*
X107410097Y-131079670D01*
X107531285Y-131222000D01*
X107562494Y-131260062D01*
X107615629Y-131325343D01*
X107685083Y-131410988D01*
X107768556Y-131514140D01*
X107863746Y-131631939D01*
X107968354Y-131761528D01*
X108080077Y-131900047D01*
X108196615Y-132044639D01*
X108250067Y-132111000D01*
X108315667Y-132192444D01*
X108434932Y-132340603D01*
X108552109Y-132486260D01*
X108664896Y-132626554D01*
X108770994Y-132758627D01*
X108868101Y-132879621D01*
X108953916Y-132986678D01*
X109026138Y-133076938D01*
X109082466Y-133147543D01*
X109120599Y-133195635D01*
X109138237Y-133218355D01*
X109139692Y-133226893D01*
X109134850Y-133243132D01*
X109122302Y-133268679D01*
X109100797Y-133305347D01*
X109069080Y-133354949D01*
X109025900Y-133419295D01*
X108970005Y-133500198D01*
X108900141Y-133599471D01*
X108815057Y-133718926D01*
X108713499Y-133860374D01*
X108594216Y-134025629D01*
X108455954Y-134216501D01*
X108297462Y-134434804D01*
X108171177Y-134608571D01*
X108017105Y-134820407D01*
X107881580Y-135006440D01*
X107763024Y-135168734D01*
X107659861Y-135309354D01*
X107570515Y-135430365D01*
X107493411Y-135533832D01*
X107426972Y-135621818D01*
X107369623Y-135696390D01*
X107319786Y-135759610D01*
X107275886Y-135813545D01*
X107236347Y-135860258D01*
X107199593Y-135901814D01*
X107164047Y-135940279D01*
X107128135Y-135977715D01*
X107090278Y-136016189D01*
X106950771Y-136156857D01*
X108826357Y-136156933D01*
X108820464Y-136043275D01*
X108820179Y-136037564D01*
X108819060Y-135992127D01*
X108821181Y-135948593D01*
X108827958Y-135904576D01*
X108840812Y-135857693D01*
X108861160Y-135805558D01*
X108890420Y-135745786D01*
X108930012Y-135675994D01*
X108981353Y-135593797D01*
X109045862Y-135496809D01*
X109124957Y-135382647D01*
X109220057Y-135248925D01*
X109332581Y-135093260D01*
X109463946Y-134913265D01*
X109615572Y-134706557D01*
X110150786Y-133977911D01*
X110155501Y-134822755D01*
X110155919Y-134901562D01*
X110156656Y-135113832D01*
X110156321Y-135294381D01*
X110154519Y-135446628D01*
X110150856Y-135573988D01*
X110144936Y-135679878D01*
X110136367Y-135767715D01*
X110124751Y-135840916D01*
X110109697Y-135902898D01*
X110090807Y-135957076D01*
X110067689Y-136006869D01*
X110039947Y-136055693D01*
X110007187Y-136106964D01*
X109974256Y-136156857D01*
X111685704Y-136156857D01*
X111641496Y-136097893D01*
X111634572Y-136088565D01*
X111579221Y-136003070D01*
X111541064Y-135916644D01*
X111516008Y-135817613D01*
X111499959Y-135694304D01*
X111499518Y-135688929D01*
X111497189Y-135638067D01*
X111495087Y-135553206D01*
X111493219Y-135436286D01*
X111491596Y-135289246D01*
X111490227Y-135114026D01*
X111489120Y-134912563D01*
X111488285Y-134686798D01*
X111487732Y-134438669D01*
X111487468Y-134170115D01*
X111487503Y-133883077D01*
X111487847Y-133579492D01*
X111488508Y-133261300D01*
X111489209Y-132975881D01*
X111489958Y-132665196D01*
X111490696Y-132387226D01*
X111491515Y-132140022D01*
X111492507Y-131921637D01*
X111493766Y-131730125D01*
X111495383Y-131563537D01*
X111497452Y-131419925D01*
X111500065Y-131297344D01*
X111503315Y-131193844D01*
X111507293Y-131107479D01*
X111512094Y-131036301D01*
X111517809Y-130978363D01*
X111524532Y-130931717D01*
X111532354Y-130894416D01*
X111541368Y-130864512D01*
X111551667Y-130840058D01*
X111563344Y-130819106D01*
X111576492Y-130799709D01*
X111591202Y-130779920D01*
X111607567Y-130757791D01*
X111623396Y-130735615D01*
X111653991Y-130691769D01*
X111672317Y-130664107D01*
X111672759Y-130662949D01*
X111666360Y-130657718D01*
X111643779Y-130653353D01*
X111602502Y-130649788D01*
X111540017Y-130646954D01*
X111453812Y-130644787D01*
X111341373Y-130643217D01*
X111200188Y-130642179D01*
X111027745Y-130641605D01*
X110821530Y-130641429D01*
X109957060Y-130641429D01*
X110002621Y-130695574D01*
X110029026Y-130732763D01*
X110072978Y-130820446D01*
X110111495Y-130929499D01*
X110140893Y-131050468D01*
X110142766Y-131061952D01*
X110148341Y-131122492D01*
X110152563Y-131216056D01*
X110155443Y-131343292D01*
X110156992Y-131504846D01*
X110157221Y-131701368D01*
X110156143Y-131933504D01*
X110150786Y-132708508D01*
X109597429Y-132008742D01*
X109581579Y-131988698D01*
X109441253Y-131811052D01*
X109321453Y-131658914D01*
X109220270Y-131529698D01*
X109135800Y-131420817D01*
X109066135Y-131329685D01*
X109009368Y-131253714D01*
X108963594Y-131190317D01*
X108926906Y-131136908D01*
X108897396Y-131090901D01*
X108873159Y-131049707D01*
X108852288Y-131010741D01*
X108832877Y-130971415D01*
X108803015Y-130901805D01*
X108783724Y-130828372D01*
X108778592Y-130749165D01*
X108779108Y-130641429D01*
X106943127Y-130641429D01*
X106336080Y-130641429D01*
X106355830Y-130631138D01*
X106498136Y-130519032D01*
X106537695Y-130479510D01*
X106654620Y-130333175D01*
X106737588Y-130174367D01*
X106787043Y-130002063D01*
X106803429Y-129815238D01*
X106803429Y-129661715D01*
X109407830Y-129661714D01*
X109570540Y-129661707D01*
X109920089Y-129661660D01*
X110235856Y-129661626D01*
X110519588Y-129661673D01*
X110773031Y-129661872D01*
X110997931Y-129662291D01*
X111196034Y-129662998D01*
X111369087Y-129664065D01*
X111518835Y-129665558D01*
X111647025Y-129667547D01*
X111755403Y-129670102D01*
X111845715Y-129673291D01*
X111919707Y-129677183D01*
X111979125Y-129681848D01*
X112025716Y-129687354D01*
X112061226Y-129693771D01*
X112087400Y-129701167D01*
X112105986Y-129709611D01*
X112118728Y-129719173D01*
X112127374Y-129729922D01*
X112133670Y-129741926D01*
X112139360Y-129755255D01*
X112146193Y-129769978D01*
X112146316Y-129770218D01*
X112149633Y-129779856D01*
X112152676Y-129795993D01*
X112155456Y-129820121D01*
X112157985Y-129853727D01*
X112160274Y-129898301D01*
X112162334Y-129955333D01*
X112164179Y-130026311D01*
X112165817Y-130112725D01*
X112167263Y-130216064D01*
X112168526Y-130337818D01*
X112169619Y-130479475D01*
X112170553Y-130642526D01*
X112171340Y-130828458D01*
X112171991Y-131038762D01*
X112172517Y-131274927D01*
X112172931Y-131538442D01*
X112173244Y-131830797D01*
X112173467Y-132153480D01*
X112173612Y-132507981D01*
X112173691Y-132895789D01*
X112173714Y-133318393D01*
X112173715Y-133401414D01*
X112173755Y-133819614D01*
X112173817Y-134203313D01*
X112173854Y-134554009D01*
X112173817Y-134873204D01*
X112173662Y-135162398D01*
X112173339Y-135423091D01*
X112172801Y-135656784D01*
X112172001Y-135864976D01*
X112170892Y-136049168D01*
X112169916Y-136156857D01*
X112169428Y-136210860D01*
G37*
%TD*%
M02*
