M48
; DRILL file {KiCad 9.0.3} date 2026-05-04T15:41:27+0800
; FORMAT={-:-/ absolute / metric / decimal}
; #@! TF.CreationDate,2026-05-04T15:41:27+08:00
; #@! TF.GenerationSoftware,Kicad,Pcbnew,9.0.3
; #@! TF.FileFunction,Plated,1,2,PTH
FMAT,2
METRIC
; #@! TA.AperFunction,Plated,PTH,ViaDrill
T1C0.381
; #@! TA.AperFunction,Plated,PTH,ComponentDrill
T2C0.800
; #@! TA.AperFunction,Plated,PTH,ComponentDrill
T3C0.900
; #@! TA.AperFunction,Plated,PTH,ComponentDrill
T4C1.000
; #@! TA.AperFunction,Plated,PTH,ComponentDrill
T5C1.300
%
G90
G05
T1
X89.546Y-126.75
X112.621Y-89.225
X113.896Y-71.65
X125.671Y-82.775
X126.721Y-81.7
X127.371Y-83.825
X128.846Y-83.8
X138.671Y-107.325
X139.796Y-80.7
X141.446Y-107.1
X142.296Y-54.65
X142.8Y-75.6
X143.646Y-57.825
X146.871Y-61.9
X164.946Y-77.475
X179.696Y-108.575
X185.4Y-99.8
X196.146Y-85.125
X198.996Y-108.525
T2
X107.391Y-109.88
X107.391Y-125.12
X109.931Y-109.88
X109.931Y-125.12
X112.471Y-109.88
X112.471Y-125.12
X115.011Y-109.88
X115.011Y-125.12
X117.551Y-109.88
X117.551Y-125.12
X168.246Y-67.23
X168.246Y-82.47
X170.786Y-67.23
X170.786Y-82.47
X173.326Y-67.23
X173.326Y-82.47
X175.866Y-67.23
X175.866Y-82.47
X178.406Y-67.23
X178.406Y-82.47
T3
X98.034Y-112.675
X98.034Y-122.275
X100.574Y-112.675
X100.574Y-122.275
X124.676Y-107.225
X124.681Y-117.5
X124.686Y-128.125
X127.216Y-107.225
X127.221Y-117.5
X127.226Y-128.125
X158.069Y-84.8
X158.094Y-74.4
X158.099Y-64.2
X160.609Y-84.8
X160.634Y-74.4
X160.639Y-64.2
X187.131Y-70.0
X187.131Y-79.6
X189.671Y-70.0
X189.671Y-79.6
T4
X117.894Y-87.51
X117.894Y-90.05
X117.939Y-74.76
X117.939Y-77.3
X120.434Y-87.51
X120.434Y-90.05
X120.479Y-74.76
X120.479Y-77.3
X122.974Y-87.51
X122.974Y-90.05
X123.019Y-74.76
X123.019Y-77.3
X125.514Y-87.51
X125.514Y-90.05
X125.531Y-61.1
X125.531Y-63.64
X125.559Y-74.76
X125.559Y-77.3
X128.054Y-87.51
X128.054Y-90.05
X128.071Y-61.1
X128.071Y-63.64
X128.099Y-74.76
X128.099Y-77.3
X130.594Y-87.51
X130.594Y-90.05
X130.611Y-61.1
X130.611Y-63.64
X130.639Y-74.76
X130.639Y-77.3
X133.134Y-87.51
X133.134Y-90.05
X133.151Y-61.1
X133.151Y-63.64
X133.179Y-74.76
X133.179Y-77.3
X135.674Y-87.51
X135.674Y-90.05
X135.691Y-61.1
X135.691Y-63.64
X135.719Y-74.76
X135.719Y-77.3
X151.425Y-108.5
X151.425Y-111.0
X151.425Y-113.5
X168.7Y-108.5
X168.7Y-111.0
X168.7Y-113.5
X183.612Y-114.05
X188.612Y-114.05
T5
X95.534Y-66.25
X100.534Y-66.25
M30
