%TF.GenerationSoftware,KiCad,Pcbnew,9.0.3*%
%TF.CreationDate,2026-05-07T20:53:16+08:00*%
%TF.ProjectId,KiCad_Traffic_Light_Controller_demo,4b694361-645f-4547-9261-666669635f4c,rev?*%
%TF.SameCoordinates,Original*%
%TF.FileFunction,Paste,Top*%
%TF.FilePolarity,Positive*%
%FSLAX46Y46*%
G04 Gerber Fmt 4.6, Leading zero omitted, Abs format (unit mm)*
G04 Created by KiCad (PCBNEW 9.0.3) date 2026-05-07 20:53:16*
%MOMM*%
%LPD*%
G01*
G04 APERTURE LIST*
G04 Aperture macros list*
%AMRoundRect*
0 Rectangle with rounded corners*
0 $1 Rounding radius*
0 $2 $3 $4 $5 $6 $7 $8 $9 X,Y pos of 4 corners*
0 Add a 4 corners polygon primitive as box body*
4,1,4,$2,$3,$4,$5,$6,$7,$8,$9,$2,$3,0*
0 Add four circle primitives for the rounded corners*
1,1,$1+$1,$2,$3*
1,1,$1+$1,$4,$5*
1,1,$1+$1,$6,$7*
1,1,$1+$1,$8,$9*
0 Add four rect primitives between the rounded corners*
20,1,$1+$1,$2,$3,$4,$5,0*
20,1,$1+$1,$4,$5,$6,$7,0*
20,1,$1+$1,$6,$7,$8,$9,0*
20,1,$1+$1,$8,$9,$2,$3,0*%
G04 Aperture macros list end*
%ADD10RoundRect,0.250000X-0.400000X-0.625000X0.400000X-0.625000X0.400000X0.625000X-0.400000X0.625000X0*%
%ADD11RoundRect,0.250000X-0.625000X0.400000X-0.625000X-0.400000X0.625000X-0.400000X0.625000X0.400000X0*%
%ADD12RoundRect,0.225000X0.225000X0.375000X-0.225000X0.375000X-0.225000X-0.375000X0.225000X-0.375000X0*%
%ADD13RoundRect,0.250000X0.400000X0.625000X-0.400000X0.625000X-0.400000X-0.625000X0.400000X-0.625000X0*%
%ADD14RoundRect,0.250000X0.412500X0.650000X-0.412500X0.650000X-0.412500X-0.650000X0.412500X-0.650000X0*%
%ADD15RoundRect,0.375000X-0.375000X0.625000X-0.375000X-0.625000X0.375000X-0.625000X0.375000X0.625000X0*%
%ADD16RoundRect,0.500000X-1.400000X0.500000X-1.400000X-0.500000X1.400000X-0.500000X1.400000X0.500000X0*%
%ADD17RoundRect,0.250000X0.625000X-0.400000X0.625000X0.400000X-0.625000X0.400000X-0.625000X-0.400000X0*%
%ADD18RoundRect,0.250000X-1.500000X-0.550000X1.500000X-0.550000X1.500000X0.550000X-1.500000X0.550000X0*%
%ADD19RoundRect,0.250000X-1.050000X-0.550000X1.050000X-0.550000X1.050000X0.550000X-1.050000X0.550000X0*%
G04 APERTURE END LIST*
D10*
%TO.C,R17*%
X148821250Y-64225000D03*
X151921250Y-64225000D03*
%TD*%
D11*
%TO.C,R7*%
X167376250Y-59500000D03*
X167376250Y-62600000D03*
%TD*%
D12*
%TO.C,D13*%
X160350000Y-113050000D03*
X157050000Y-113050000D03*
%TD*%
D10*
%TO.C,R18*%
X148821250Y-74450000D03*
X151921250Y-74450000D03*
%TD*%
D13*
%TO.C,R24*%
X197821250Y-79600000D03*
X194721250Y-79600000D03*
%TD*%
D10*
%TO.C,R31*%
X157150000Y-108575000D03*
X160250000Y-108575000D03*
%TD*%
D14*
%TO.C,C2*%
X177287500Y-117175000D03*
X174162500Y-117175000D03*
%TD*%
D15*
%TO.C,U3*%
X98071250Y-80550000D03*
X95771250Y-80550000D03*
X93471250Y-80550000D03*
D16*
X95771250Y-86850000D03*
%TD*%
D17*
%TO.C,R12*%
X110008750Y-132900000D03*
X110008750Y-129800000D03*
%TD*%
%TO.C,R8*%
X179176250Y-90300000D03*
X179176250Y-87200000D03*
%TD*%
D13*
%TO.C,R23*%
X197833750Y-70000000D03*
X194733750Y-70000000D03*
%TD*%
D11*
%TO.C,R9*%
X114008750Y-102000000D03*
X114008750Y-105100000D03*
%TD*%
%TO.C,R2*%
X179176250Y-59500000D03*
X179176250Y-62600000D03*
%TD*%
D13*
%TO.C,R22*%
X136176250Y-128150000D03*
X133076250Y-128150000D03*
%TD*%
%TO.C,R21*%
X136171250Y-117475000D03*
X133071250Y-117475000D03*
%TD*%
D10*
%TO.C,R19*%
X148821250Y-84800000D03*
X151921250Y-84800000D03*
%TD*%
D13*
%TO.C,R28*%
X177125000Y-108575000D03*
X174025000Y-108575000D03*
%TD*%
D18*
%TO.C,C4*%
X103258750Y-78950000D03*
X108658750Y-78950000D03*
%TD*%
D17*
%TO.C,R4*%
X171576250Y-90300000D03*
X171576250Y-87200000D03*
%TD*%
D19*
%TO.C,C1*%
X102983750Y-88225000D03*
X106583750Y-88225000D03*
%TD*%
D17*
%TO.C,R13*%
X106033750Y-132875000D03*
X106033750Y-129775000D03*
%TD*%
D11*
%TO.C,R15*%
X106033750Y-102000000D03*
X106033750Y-105100000D03*
%TD*%
D12*
%TO.C,D12*%
X195762500Y-113125000D03*
X192462500Y-113125000D03*
%TD*%
D17*
%TO.C,R11*%
X114008750Y-132925000D03*
X114008750Y-129825000D03*
%TD*%
D10*
%TO.C,R27*%
X192612500Y-104750000D03*
X195712500Y-104750000D03*
%TD*%
D11*
%TO.C,R6*%
X171576250Y-59500000D03*
X171576250Y-62600000D03*
%TD*%
D13*
%TO.C,R30*%
X177125000Y-104675000D03*
X174025000Y-104675000D03*
%TD*%
D11*
%TO.C,R10*%
X118058750Y-102000000D03*
X118058750Y-105100000D03*
%TD*%
%TO.C,R14*%
X110008750Y-102000000D03*
X110008750Y-105100000D03*
%TD*%
D17*
%TO.C,R16*%
X118058750Y-132950000D03*
X118058750Y-129850000D03*
%TD*%
D12*
%TO.C,D11*%
X177225000Y-113050000D03*
X173925000Y-113050000D03*
%TD*%
D10*
%TO.C,R26*%
X89608750Y-122400000D03*
X92708750Y-122400000D03*
%TD*%
D13*
%TO.C,R20*%
X136166250Y-107225000D03*
X133066250Y-107225000D03*
%TD*%
D14*
%TO.C,C3*%
X195675000Y-117250000D03*
X192550000Y-117250000D03*
%TD*%
D17*
%TO.C,R3*%
X175201250Y-90325000D03*
X175201250Y-87225000D03*
%TD*%
D11*
%TO.C,R1*%
X175201250Y-59500000D03*
X175201250Y-62600000D03*
%TD*%
D14*
%TO.C,C5*%
X160262500Y-117175000D03*
X157137500Y-117175000D03*
%TD*%
D10*
%TO.C,R32*%
X157150000Y-104675000D03*
X160250000Y-104675000D03*
%TD*%
%TO.C,R25*%
X89608750Y-112675000D03*
X92708750Y-112675000D03*
%TD*%
D13*
%TO.C,R29*%
X195737500Y-108650000D03*
X192637500Y-108650000D03*
%TD*%
D17*
%TO.C,R5*%
X167376250Y-90325000D03*
X167376250Y-87225000D03*
%TD*%
M02*
